<svg xmlns="http://www.w3.org/2000/svg"  viewBox="0 0 100 100" width="200px" height="200px"><path fill="#c7ede6" d="M87.215,56.71c3.985-7.56,1.087-16.918-6.473-20.903c-0.564-0.297-1.146-0.56-1.742-0.785V35	c0.005-11.591-9.387-20.992-20.979-20.997c-9.579-0.004-17.946,6.478-20.334,15.754c-7.852-2.596-16.323,1.665-18.919,9.517	c-0.32,0.969-0.541,1.969-0.658,2.983c-6.209,1.335-10.161,7.451-8.826,13.661c1.137,5.288,5.806,9.07,11.216,9.082	c0.177,0,0.352-0.012,0.526-0.022c0,0.175-0.026,0.346-0.026,0.522c-0.004,11.318,9.167,20.496,20.485,20.501	c6.194,0.002,12.056-2.797,15.949-7.615c4.617,4.735,12.199,4.831,16.934,0.214c0.93-0.907,1.706-1.958,2.298-3.114	c5.782,1.851,11.969-1.336,13.82-7.118C91.827,64.178,90.54,59.591,87.215,56.71z"/><path fill="#fff" d="M53.5,20h-10c-0.276,0-0.5-0.224-0.5-0.5s0.224-0.5,0.5-0.5h10c0.276,0,0.5,0.224,0.5,0.5 S53.776,20,53.5,20z"/><path fill="#fff" d="M56.5,20h-1c-0.276,0-0.5-0.224-0.5-0.5s0.224-0.5,0.5-0.5h1c0.276,0,0.5,0.224,0.5,0.5 S56.776,20,56.5,20z"/><path fill="#fff" d="M59.491,22H52.5c-0.276,0-0.5-0.224-0.5-0.5s0.224-0.5,0.5-0.5h6.991c0.276,0,0.5,0.224,0.5,0.5 S59.767,22,59.491,22z"/><path fill="#fff" d="M50.5,22h-1c-0.276,0-0.5-0.224-0.5-0.5s0.224-0.5,0.5-0.5h1c0.276,0,0.5,0.224,0.5,0.5 S50.776,22,50.5,22z"/><path fill="#fff" d="M47.5,22h-2c-0.276,0-0.5-0.224-0.5-0.5s0.224-0.5,0.5-0.5h2c0.276,0,0.5,0.224,0.5,0.5 S47.776,22,47.5,22z"/><path fill="#fff" d="M53.5,24h-2c-0.276,0-0.5-0.224-0.5-0.5s0.224-0.5,0.5-0.5h2c0.276,0,0.5,0.224,0.5,0.5 S53.776,24,53.5,24z"/><path fill="#fff" d="M56.5,15h-8c-0.276,0-0.5,0.224-0.5,0.5s0.224,0.5,0.5,0.5h8c0.276,0,0.5-0.224,0.5-0.5 S56.776,15,56.5,15z"/><path fill="#fff" d="M51.5,17h-6c-0.276,0-0.5,0.224-0.5,0.5s0.224,0.5,0.5,0.5h6c0.276,0,0.5-0.224,0.5-0.5 S51.776,17,51.5,17z"/><path fill="#fff" d="M61.5,19h-3c-0.276,0-0.5,0.224-0.5,0.5s0.224,0.5,0.5,0.5h3c0.276,0,0.5-0.224,0.5-0.5 S61.776,19,61.5,19z"/><path fill="#fff" d="M59.5,17h-6c-0.276,0-0.5,0.224-0.5,0.5s0.224,0.5,0.5,0.5h6c0.276,0,0.5-0.224,0.5-0.5 S59.776,17,59.5,17z"/><g><path fill="#fff" d="M68.5,76h-10c-0.276,0-0.5-0.224-0.5-0.5s0.224-0.5,0.5-0.5h10c0.276,0,0.5,0.224,0.5,0.5 S68.776,76,68.5,76z M72.5,76h-2c-0.276,0-0.5-0.224-0.5-0.5s0.224-0.5,0.5-0.5h2c0.276,0,0.5,0.224,0.5,0.5S72.776,76,72.5,76z M77.5,78h-10c-0.276,0-0.5-0.224-0.5-0.5s0.224-0.5,0.5-0.5h10c0.276,0,0.5,0.224,0.5,0.5S77.776,78,77.5,78z M65.5,78h-1 c-0.276,0-0.5-0.224-0.5-0.5s0.224-0.5,0.5-0.5h1c0.276,0,0.5,0.224,0.5,0.5S65.776,78,65.5,78z M62.47,78H60.5 c-0.276,0-0.5-0.224-0.5-0.5s0.224-0.5,0.5-0.5h1.97c0.276,0,0.5,0.224,0.5,0.5S62.746,78,62.47,78z M71.5,74h-5 c-0.276,0-0.5-0.224-0.5-0.5s0.224-0.5,0.5-0.5h5c0.276,0,0.5,0.224,0.5,0.5S71.776,74,71.5,74z M68.5,80h-2 c-0.276,0-0.5-0.224-0.5-0.5s0.224-0.5,0.5-0.5h2c0.276,0,0.5,0.224,0.5,0.5S68.776,80,68.5,80z"/></g><g><path fill="#fdfcef" d="M75.5,35.5V36h3v-0.5H84c2.479,0.006,4.493-1.998,4.5-4.476c0.006-2.315-1.75-4.255-4.055-4.479 c0.03-0.18,0.048-0.362,0.055-0.545c0.009-2.476-1.992-4.491-4.468-4.5c-1.391-0.005-2.706,0.636-3.559,1.736 c-0.104-2.753-2.42-4.901-5.173-4.798c-2.753,0.104-4.901,2.42-4.798,5.173c0.015,0.396,0.077,0.789,0.185,1.171 c-1.21-1.488-3.398-1.713-4.886-0.503c-0.698,0.567-1.148,1.383-1.256,2.276c-0.18-0.03-0.362-0.048-0.545-0.055 c-2.485,0-4.5,2.015-4.5,4.5s2.015,4.5,4.5,4.5H75.5z"/><path fill="#472b29" d="M71.5,18c-3.036,0.003-5.497,2.464-5.5,5.5v0.047C65.394,23.189,64.704,23,64,23 c-1.82,0.007-3.405,1.242-3.858,3.005C60.095,26.005,60.048,26,60,26c-2.761,0-5,2.239-5,5c0,2.761,2.239,5,5,5h15.5 c0.276,0,0.5-0.224,0.5-0.5S75.776,35,75.5,35H60c-2.209,0-4-1.791-4-4c0-2.209,1.791-4,4-4c0.115,0.003,0.23,0.014,0.343,0.032 l0.141,0.019c0.021,0.001,0.041,0.001,0.062,0c0.253,0.002,0.468-0.186,0.5-0.437c0.202-1.629,1.686-2.787,3.316-2.585 c0.76,0.094,1.454,0.478,1.938,1.071c0.095,0.115,0.237,0.182,0.386,0.182c0.08,0,0.158-0.019,0.229-0.056 c0.209-0.108,0.314-0.346,0.254-0.573C67.062,24.278,67.005,23.89,67,23.5c-0.003-2.48,2.005-4.492,4.485-4.495 c2.392-0.003,4.365,1.87,4.489,4.258c0.012,0.208,0.151,0.387,0.349,0.449c0.049,0.017,0.1,0.025,0.152,0.025 c0.153-0.001,0.298-0.072,0.392-0.193c1.348-1.739,3.85-2.056,5.589-0.709C83.434,23.593,84.005,24.763,84,26 c-0.003,0.115-0.014,0.23-0.032,0.343l-0.019,0.141c-0.033,0.274,0.162,0.523,0.436,0.557c0.004,0,0.007,0.001,0.011,0.001 c2.193,0.209,3.801,2.155,3.592,4.348c-0.196,2.055-1.928,3.622-3.992,3.61H78.5c-0.276,0-0.5,0.224-0.5,0.5s0.224,0.5,0.5,0.5H84 c2.755,0.006,4.993-2.222,4.999-4.977c0.005-2.378-1.669-4.429-3.999-4.9c0-0.041,0-0.082,0-0.123c-0.003-2.76-2.24-4.997-5-5 c-1.165,0-2.293,0.412-3.183,1.164C76.21,19.72,74.018,18.003,71.5,18z"/><path fill="#472b29" d="M70,25c-1.397,0.01-2.603,0.979-2.913,2.341c-0.365-0.222-0.784-0.34-1.212-0.341 c-1.192,0.002-2.198,0.886-2.353,2.068c-0.192-0.044-0.388-0.067-0.585-0.068c-1.537,0.008-2.808,1.199-2.917,2.732 c-0.01,0.138,0.093,0.257,0.231,0.268h0.019c0.131-0.001,0.239-0.102,0.249-0.232c0.067-1.318,1.191-2.332,2.509-2.265 c0.22,0.011,0.438,0.053,0.647,0.124c0.022,0.007,0.044,0.011,0.067,0.011c0.144-0.002,0.259-0.119,0.258-0.263 c-0.004-1.03,0.827-1.868,1.857-1.873c0.46-0.002,0.905,0.166,1.249,0.473c0.046,0.04,0.105,0.063,0.166,0.063 c0.032,0,0.064-0.007,0.093-0.019c0.088-0.036,0.148-0.118,0.156-0.212C67.624,26.512,68.7,25.51,70,25.5 c0.231,0.003,0.461,0.04,0.682,0.107c0.023,0.007,0.046,0.01,0.07,0.01c0.138,0,0.25-0.112,0.25-0.25 c0-0.112-0.075-0.211-0.184-0.241C70.553,25.045,70.277,25.003,70,25z"/><path fill="#472b29" d="M83.883,26.5c-1.337,0.006-2.508,0.896-2.873,2.182c-0.038,0.132,0.039,0.27,0.171,0.308 c0,0,0.001,0,0.001,0C81.204,28.997,81.227,29,81.25,29c0.112,0,0.21-0.075,0.24-0.182c0.304-1.071,1.279-1.813,2.393-1.818 c0.115,0.002,0.229,0.012,0.342,0.029c0.012,0.001,0.023,0.001,0.035,0c0.138,0.009,0.257-0.096,0.266-0.234 c0.009-0.138-0.096-0.257-0.234-0.266C84.156,26.51,84.02,26.501,83.883,26.5z"/></g><g><path fill="#afabd4" d="M38.67,73.236c-0.09,0-0.181-0.018-0.268-0.054l-4.129-1.71c-0.278-0.115-0.452-0.396-0.431-0.696 l0.167-2.349c0.142-2.002-0.59-3.966-2.007-5.386c-1.321-1.33-3.096-2.068-4.912-2.068c-0.165-0.001-0.34,0.005-0.509,0.017 l-2.358,0.168c-0.304,0.012-0.582-0.152-0.696-0.431l-1.71-4.13c-0.115-0.278-0.04-0.599,0.188-0.796l1.794-1.556 c1.512-1.31,2.377-3.208,2.374-5.207c-0.002-2.083-0.867-3.977-2.373-5.283l-1.795-1.556c-0.228-0.197-0.303-0.518-0.188-0.797 l1.71-4.129c0.114-0.278,0.395-0.446,0.696-0.43l2.369,0.168c0.17,0.013,0.336,0.015,0.506,0.017c1.808,0,3.571-0.732,4.845-2.011 c1.477-1.472,2.209-3.434,2.066-5.436l-0.167-2.358c-0.021-0.3,0.152-0.581,0.431-0.696l4.129-1.71 c0.28-0.115,0.599-0.04,0.797,0.188l1.548,1.785c1.019,1.174,2.432,1.978,3.979,2.261c0.333,0.061,0.574,0.351,0.574,0.688v38.524 c0,0.338-0.242,0.628-0.574,0.688c-1.546,0.283-2.96,1.088-3.983,2.267l-1.544,1.776C39.062,73.152,38.868,73.236,38.67,73.236z"/><path fill="#7878aa" d="M45.375,61.961C38.416,61.632,33,55.994,33,49s5.416-12.632,12.375-12.961v-3.877 c-8.981,0.333-16.25,7.83-16.25,16.838s7.269,16.505,16.25,16.838V61.961z"/><path fill="#472b29" d="M30.415,44c-0.041,0-0.082-0.006-0.122-0.021c-0.196-0.068-0.3-0.281-0.232-0.477 c1.814-5.253,6.101-9.27,11.465-10.743c0.203-0.053,0.406,0.063,0.461,0.263c0.055,0.2-0.062,0.406-0.262,0.461 c-5.126,1.408-9.222,5.245-10.955,10.265C30.716,43.903,30.57,44,30.415,44z"/><path fill="#472b29" d="M35.525,40.915c-0.098,0-0.191-0.058-0.231-0.154l-1.314-3.174 c-0.053-0.127,0.008-0.274,0.136-0.327c0.127-0.052,0.273,0.007,0.327,0.135l1.314,3.174c0.053,0.127-0.008,0.274-0.136,0.327 C35.59,40.909,35.558,40.915,35.525,40.915z"/><path fill="#472b29" d="M38.194,38.407c-0.105,0-0.204-0.067-0.238-0.173l-0.992-3.084 c-0.042-0.131,0.03-0.272,0.162-0.314c0.131-0.042,0.272,0.029,0.314,0.161l0.992,3.084c0.042,0.131-0.03,0.272-0.162,0.314 C38.245,38.403,38.22,38.407,38.194,38.407z"/><path fill="#472b29" d="M41.091,36.828c-0.118,0-0.224-0.084-0.246-0.205l-0.575-3.109c-0.024-0.136,0.064-0.266,0.2-0.291 c0.142-0.026,0.267,0.064,0.292,0.2l0.575,3.109c0.024,0.136-0.064,0.266-0.2,0.291C41.121,36.826,41.105,36.828,41.091,36.828z"/><path fill="#472b29" d="M40.683,64.851c-0.056,0-0.111-0.018-0.157-0.056c-0.107-0.087-0.124-0.244-0.037-0.352l2.136-2.63 c0.088-0.107,0.246-0.124,0.352-0.036c0.107,0.087,0.124,0.244,0.037,0.352l-2.136,2.63 C40.827,64.819,40.755,64.851,40.683,64.851z"/><path fill="#472b29" d="M37.135,63.162c-0.076,0-0.151-0.035-0.201-0.101c-0.082-0.111-0.059-0.268,0.053-0.35l2.75-2.038 c0.109-0.081,0.267-0.059,0.35,0.052c0.082,0.111,0.059,0.268-0.053,0.35l-2.75,2.038C37.239,63.146,37.187,63.162,37.135,63.162z"/><path fill="#472b29" d="M34.2,60.754c-0.098,0-0.191-0.058-0.231-0.154c-0.053-0.127,0.008-0.274,0.136-0.327l3.162-1.31 c0.127-0.053,0.274,0.007,0.327,0.135c0.053,0.127-0.008,0.274-0.136,0.327l-3.162,1.31C34.265,60.749,34.232,60.754,34.2,60.754z"/><path fill="#472b29" d="M31.828,57.667c-0.122,0-0.229-0.089-0.247-0.213c-0.021-0.136,0.074-0.264,0.21-0.284l3.396-0.505 c0.147-0.025,0.264,0.075,0.284,0.21c0.021,0.136-0.074,0.264-0.21,0.284l-3.396,0.505C31.853,57.666,31.84,57.667,31.828,57.667z"/><path fill="#472b29" d="M43.375,33.117c-0.182,0-0.341-0.131-0.37-0.316c-0.033-0.205,0.106-0.396,0.311-0.429 c0.711-0.114,1.379-0.183,2.044-0.211c0.195-0.006,0.382,0.152,0.391,0.358c0.009,0.207-0.152,0.382-0.359,0.391 c-0.635,0.027-1.274,0.093-1.956,0.202C43.414,33.115,43.395,33.117,43.375,33.117z"/><path fill="#472b29" d="M45.375,62.712c-0.006,0-0.012,0-0.018,0C38.008,62.37,32.25,56.347,32.25,49 s5.758-13.37,13.107-13.711c0.207-0.021,0.383,0.15,0.393,0.357c0.009,0.207-0.15,0.382-0.357,0.392C38.443,36.36,33,42.054,33,49 s5.443,12.64,12.393,12.962c0.207,0.01,0.366,0.185,0.357,0.392C45.74,62.555,45.574,62.712,45.375,62.712z"/><path fill="#472b29" d="M45.375,65.841c-0.005,0-0.01,0-0.014,0c-6.898-0.259-13.047-4.818-15.301-11.343 c-0.067-0.196,0.036-0.409,0.232-0.477c0.191-0.067,0.408,0.036,0.477,0.232c2.153,6.235,8.029,10.59,14.619,10.839 c0.207,0.008,0.369,0.182,0.361,0.389C45.742,65.682,45.576,65.841,45.375,65.841z"/><path fill="#472b29" d="M45.376,28.454l-0.009-0.01c-1.576-0.153-3.043-0.904-4.091-2.112l-1.7-1.959 c-0.305-0.351-0.801-0.469-1.231-0.291l-4.553,1.887c-0.43,0.178-0.698,0.611-0.665,1.075l0.184,2.587 c0.126,1.798-0.534,3.563-1.811,4.836l-0.054,0.053c-1.159,1.158-2.731,1.808-4.369,1.808c-0.146,0-0.292-0.005-0.439-0.016 l-2.6-0.184c-0.026,0-0.051,0-0.077,0c-0.438-0.001-0.833,0.263-1,0.668l-1.887,4.553c-0.178,0.43-0.061,0.926,0.291,1.231 l1.967,1.706c1.354,1.173,2.132,2.876,2.133,4.667v0.088c0.002,1.795-0.776,3.503-2.132,4.679l-1.968,1.706 c-0.352,0.305-0.469,0.801-0.291,1.231l1.887,4.553c0.167,0.405,0.562,0.668,1,0.668c0.026,0,0.051,0,0.077,0l2.586-0.184 c0.148-0.01,0.295-0.015,0.441-0.015c1.651-0.001,3.234,0.655,4.4,1.823l0.039,0.04c1.273,1.277,1.93,3.043,1.8,4.842 l-0.183,2.578c-0.033,0.464,0.235,0.897,0.665,1.075l4.553,1.887c0.43,0.178,0.926,0.06,1.231-0.291l1.693-1.952 c0.913-1.053,2.143-1.76,3.487-2.028c0.205-0.041,0.413-0.072,0.623-0.092l0.01-0.011C45.729,69.508,46,69.225,46,68.867V29.138 C46,28.779,45.725,28.493,45.376,28.454z M44.6,68.264c-1.69,0.309-3.242,1.178-4.386,2.497l-1.544,1.775l-4.129-1.71l0.167-2.349 c0.157-2.203-0.649-4.367-2.21-5.93l-0.04-0.04c-1.425-1.435-3.365-2.24-5.387-2.234c-0.179,0-0.36,0.006-0.54,0.019l-2.357,0.168 l-1.71-4.13l1.794-1.556c1.663-1.442,2.618-3.536,2.615-5.737v-0.088c-0.001-2.196-0.955-4.284-2.615-5.723l-1.794-1.556 l1.71-4.129l2.369,0.168c0.18,0.013,0.359,0.019,0.538,0.019c2.01,0.006,3.939-0.793,5.358-2.217l0.054-0.053 c1.564-1.56,2.372-3.723,2.215-5.927l-0.167-2.357l4.129-1.71l1.548,1.785c1.142,1.317,2.694,2.182,4.382,2.491V68.264z"/><g><circle cx="46" cy="49" r="6.5" fill="#7878aa"/><path fill="#472b29" d="M46,56c-3.859,0-7-3.14-7-7s3.141-7,7-7s7,3.14,7,7S49.859,56,46,56z M46,43c-3.309,0-6,2.691-6,6 s2.691,6,6,6s6-2.691,6-6S49.309,43,46,43z"/><path fill="#472b29" d="M56.5,49.5H46c-0.276,0-0.5-0.224-0.5-0.5s0.224-0.5,0.5-0.5h10.5c0.827,0,1.5-0.673,1.5-1.5v-3.5 c0-1.378,1.121-2.5,2.5-2.5h11c0.276,0,0.5,0.224,0.5,0.5S71.776,42,71.5,42h-11c-0.827,0-1.5,0.673-1.5,1.5V47 C59,48.378,57.879,49.5,56.5,49.5z"/><path fill="#472b29" d="M46,49.5c-0.128,0-0.256-0.049-0.354-0.146c-0.195-0.195-0.195-0.512,0-0.707l6.914-6.914 C52.844,41.449,53,41.072,53,40.671V33.5c0-1.378,1.121-2.5,2.5-2.5h6.628c0.276,0,0.5,0.224,0.5,0.5s-0.224,0.5-0.5,0.5H55.5 c-0.827,0-1.5,0.673-1.5,1.5v7.171c0,0.668-0.26,1.296-0.732,1.768l-6.914,6.914C46.256,49.451,46.128,49.5,46,49.5z"/><path fill="#472b29" d="M80.295,50H66.5c-1.379,0-2.5-1.122-2.5-2.5v-5.875h1V47.5c0,0.827,0.673,1.5,1.5,1.5h13.795V50z"/><path fill="#472b29" d="M71.5,67h-14c-1.379,0-2.5-1.122-2.5-2.5v-5.171c0-0.401-0.156-0.777-0.439-1.061l-8.914-8.914 l0.707-0.707l8.914,8.914C55.74,58.033,56,58.661,56,59.329V64.5c0,0.827,0.673,1.5,1.5,1.5h14V67z"/><rect width="1" height="8" x="63" y="58.5" fill="#472b29"/><path fill="#472b29" d="M78.374,58H72.5c-1.379,0-2.5-1.122-2.5-2.5v-6h1v6c0,0.827,0.673,1.5,1.5,1.5h5.874V58z"/><circle cx="60.5" cy="31.5" r="2.125" fill="#fc5672"/><path fill="#472b29" d="M60.5,34c-1.379,0-2.5-1.122-2.5-2.5s1.121-2.5,2.5-2.5s2.5,1.122,2.5,2.5S61.879,34,60.5,34z M60.5,29.75c-0.965,0-1.75,0.785-1.75,1.75s0.785,1.75,1.75,1.75s1.75-0.785,1.75-1.75S61.465,29.75,60.5,29.75z"/><circle cx="71.5" cy="41.5" r="2.125" fill="#f8e55b"/><path fill="#472b29" d="M71.5,44c-1.379,0-2.5-1.122-2.5-2.5s1.121-2.5,2.5-2.5s2.5,1.122,2.5,2.5S72.879,44,71.5,44z M71.5,39.75c-0.965,0-1.75,0.785-1.75,1.75s0.785,1.75,1.75,1.75s1.75-0.785,1.75-1.75S72.465,39.75,71.5,39.75z"/><circle cx="79.5" cy="49.5" r="2.125" fill="#fc5672"/><path fill="#472b29" d="M79.5,52c-1.379,0-2.5-1.122-2.5-2.5s1.121-2.5,2.5-2.5s2.5,1.122,2.5,2.5S80.879,52,79.5,52z M79.5,47.75c-0.965,0-1.75,0.785-1.75,1.75s0.785,1.75,1.75,1.75s1.75-0.785,1.75-1.75S80.465,47.75,79.5,47.75z"/><g><circle cx="71.5" cy="66.5" r="2.125" fill="#fc5672"/><path fill="#472b29" d="M71.5,69c-1.379,0-2.5-1.122-2.5-2.5s1.121-2.5,2.5-2.5s2.5,1.122,2.5,2.5S72.879,69,71.5,69z M71.5,64.75c-0.965,0-1.75,0.785-1.75,1.75s0.785,1.75,1.75,1.75s1.75-0.785,1.75-1.75S72.465,64.75,71.5,64.75z"/></g><g><circle cx="63.5" cy="58.5" r="2.125" fill="#f8e55b"/><path fill="#472b29" d="M63.5,61c-1.379,0-2.5-1.122-2.5-2.5s1.121-2.5,2.5-2.5s2.5,1.122,2.5,2.5S64.879,61,63.5,61z M63.5,56.75c-0.965,0-1.75,0.785-1.75,1.75s0.785,1.75,1.75,1.75s1.75-0.785,1.75-1.75S64.465,56.75,63.5,56.75z"/></g><g><circle cx="79.5" cy="57.5" r="2.125" fill="#f8e55b"/><path fill="#472b29" d="M79.5,60c-1.379,0-2.5-1.122-2.5-2.5s1.121-2.5,2.5-2.5s2.5,1.122,2.5,2.5S80.879,60,79.5,60z M79.5,55.75c-0.965,0-1.75,0.785-1.75,1.75s0.785,1.75,1.75,1.75s1.75-0.785,1.75-1.75S80.465,55.75,79.5,55.75z"/></g><g><circle cx="46" cy="49" r="2.625" fill="#a6ce4e"/><path fill="#472b29" d="M46,52c-1.654,0-3-1.346-3-3s1.346-3,3-3s3,1.346,3,3S47.654,52,46,52z M46,46.75 c-1.24,0-2.25,1.009-2.25,2.25s1.01,2.25,2.25,2.25s2.25-1.009,2.25-2.25S47.24,46.75,46,46.75z"/></g></g></g><g><path fill="#fdfcef" d="M36.5,81.5H40c1.928,0.007,3.496-1.551,3.503-3.479c0.006-1.765-1.306-3.257-3.058-3.476 c0.311-1.898-0.976-3.688-2.874-3.999c-1.176-0.192-2.368,0.23-3.161,1.119c-0.466-2.159-2.594-3.532-4.754-3.066 c-1.838,0.397-3.152,2.021-3.156,3.901c0.005,0.187,0.024,0.374,0.056,0.558c-1.062-0.866-2.624-0.707-3.489,0.355 c-0.269,0.33-0.449,0.725-0.522,1.145c-1.904-0.312-3.701,0.979-4.013,2.883s0.979,3.701,2.883,4.013 c0.193,0.032,0.389,0.047,0.585,0.046h7.5V82h7V81.5z"/><path fill="#472b29" d="M38.25,77C38.112,77,38,76.888,38,76.75c0.002-1.224,0.994-2.216,2.218-2.218 c0.418,0.004,0.835,0.049,1.244,0.135c0.133,0.036,0.212,0.173,0.176,0.306c-0.036,0.133-0.173,0.212-0.306,0.177 c-0.365-0.081-0.739-0.12-1.113-0.118c-0.949,0.001-1.717,0.769-1.719,1.718C38.5,76.888,38.388,77,38.25,77z"/><circle cx="31.5" cy="81.5" r=".5" fill="#472b29"/><path fill="#472b29" d="M40,82h-3.5c-0.276,0-0.5-0.224-0.5-0.5s0.224-0.5,0.5-0.5H40c1.652,0.007,2.996-1.327,3.003-2.979 c0.006-1.513-1.119-2.793-2.621-2.98c-0.274-0.035-0.468-0.285-0.433-0.559c0.001-0.005,0.001-0.009,0.002-0.014 c0.297-1.591-0.752-3.122-2.343-3.419C37.407,71.012,37.204,70.995,37,71c-0.849-0.001-1.657,0.364-2.219,1 c-0.185,0.205-0.501,0.222-0.706,0.037c-0.079-0.071-0.133-0.165-0.155-0.268c-0.411-1.889-2.275-3.087-4.164-2.676 c-1.604,0.349-2.75,1.766-2.756,3.407c0.004,0.14,0.017,0.28,0.041,0.418c0.032,0.212-0.063,0.423-0.242,0.54 c-0.17,0.112-0.391,0.108-0.556-0.01C25.893,73.16,25.454,73.002,25,73c-0.966,0-1.793,0.693-1.963,1.644 c-0.048,0.267-0.301,0.447-0.569,0.405c-1.633-0.259-3.167,0.855-3.426,2.488c-0.259,1.633,0.855,3.167,2.488,3.426 C21.685,80.988,21.842,81,22,81h7.5c0.276,0,0.5,0.224,0.5,0.5S29.776,82,29.5,82H22c-2.209,0-4-1.791-4-4s1.791-4,4-4 c0.059,0,0.116,0,0.174,0.006C22.594,72.805,23.727,72,25,72c0.345,0,0.687,0.06,1.011,0.18c0.179-2.479,2.334-4.343,4.813-4.163 c1.694,0.123,3.175,1.189,3.829,2.757c1.774-1.304,4.269-0.923,5.573,0.85C40.732,72.313,41.003,73.146,41,74 c0,0.048,0,0.095,0,0.142c2.136,0.545,3.425,2.718,2.88,4.854C43.428,80.768,41.829,82.006,40,82z"/><path fill="#472b29" d="M34.5,81h-1c-0.276,0-0.5,0.224-0.5,0.5s0.224,0.5,0.5,0.5h1c0.276,0,0.5-0.224,0.5-0.5 S34.776,81,34.5,81z"/></g></svg>