<svg xmlns="http://www.w3.org/2000/svg"  viewBox="0 0 100 100" width="200px" height="200px"><path fill="#c7ede6" d="M87.215,56.71C88.35,54.555,89,52.105,89,49.5c0-6.621-4.159-12.257-10.001-14.478 C78.999,35.015,79,35.008,79,35c0-11.598-9.402-21-21-21c-9.784,0-17.981,6.701-20.313,15.757C36.211,29.272,34.638,29,33,29 c-7.692,0-14.023,5.793-14.89,13.252C12.906,43.353,9,47.969,9,53.5C9,59.851,14.149,65,20.5,65c0.177,0,0.352-0.012,0.526-0.022 C21.022,65.153,21,65.324,21,65.5C21,76.822,30.178,86,41.5,86c6.437,0,12.175-2.972,15.934-7.614C59.612,80.611,62.64,82,66,82 c4.65,0,8.674-2.65,10.666-6.518C77.718,75.817,78.837,76,80,76c6.075,0,11-4.925,11-11C91,61.689,89.53,58.727,87.215,56.71z"/><path fill="#fdfcef" d="M37.875,32.5c0,0,3.64,0,6.125,0s4.5-2.015,4.5-4.5c0-2.333-1.782-4.229-4.055-4.455 C44.467,23.364,44.5,23.187,44.5,23c0-2.485-2.015-4.5-4.5-4.5c-1.438,0-2.703,0.686-3.527,1.736 C36.333,17.6,34.171,15.5,31.5,15.5c-2.761,0-5,2.239-5,5c0,0.446,0.077,0.87,0.187,1.282C26.045,21.005,25.086,20.5,24,20.5 c-1.781,0-3.234,1.335-3.455,3.055C20.364,23.533,20.187,23.5,20,23.5c-2.485,0-4.5,2.015-4.5,4.5s2.015,4.5,4.5,4.5s9.5,0,9.5,0 h5.375V33h3V32.5z"/><path fill="#472b29" d="M31.5,15c-3.033,0-5.5,2.467-5.5,5.5c0,0.016,0,0.031,0,0.047C25.398,20.192,24.71,20,24,20 c-1.831,0-3.411,1.261-3.858,3.005C20.095,23.002,20.048,23,20,23c-2.757,0-5,2.243-5,5s2.243,5,5,5h14.875 c0.276,0,0.5-0.224,0.5-0.5s-0.224-0.5-0.5-0.5H20c-2.206,0-4-1.794-4-4s1.794-4,4-4c0.117,0,0.23,0.017,0.343,0.032l0.141,0.019 c0.021,0.003,0.041,0.004,0.062,0.004c0.246,0,0.462-0.185,0.495-0.437C21.232,22.125,22.504,21,24,21 c0.885,0,1.723,0.401,2.301,1.1c0.098,0.118,0.241,0.182,0.386,0.182c0.078,0,0.156-0.018,0.228-0.056 c0.209-0.107,0.314-0.346,0.254-0.573C27.054,21.218,27,20.852,27,20.5c0-2.481,2.019-4.5,4.5-4.5 c2.381,0,4.347,1.872,4.474,4.263c0.011,0.208,0.15,0.387,0.349,0.45c0.05,0.016,0.101,0.024,0.152,0.024 c0.15,0,0.296-0.069,0.392-0.192C37.638,19.563,38.779,19,40,19c2.206,0,4,1.794,4,4c0,0.117-0.017,0.23-0.032,0.343l-0.019,0.141 c-0.016,0.134,0.022,0.268,0.106,0.373c0.084,0.105,0.207,0.172,0.34,0.185C46.451,24.247,48,25.949,48,28c0,2.206-1.794,4-4,4 h-6.125c-0.276,0-0.5,0.224-0.5,0.5s0.224,0.5,0.5,0.5H44c2.757,0,5-2.243,5-5c0-2.397-1.689-4.413-4.003-4.877 C44.999,23.082,45,23.041,45,23c0-2.757-2.243-5-5-5c-1.176,0-2.293,0.416-3.183,1.164C36.219,16.76,34.055,15,31.5,15L31.5,15z"/><path fill="#472b29" d="M30,22c-1.403,0-2.609,0.999-2.913,2.341C26.72,24.119,26.301,24,25.875,24 c-1.202,0-2.198,0.897-2.353,2.068C23.319,26.022,23.126,26,22.937,26c-1.529,0-2.811,1.2-2.918,2.732 C20.01,28.87,20.114,28.99,20.251,29c0.006,0,0.012,0,0.018,0c0.13,0,0.24-0.101,0.249-0.232c0.089-1.271,1.151-2.268,2.419-2.268 c0.229,0,0.47,0.042,0.738,0.127c0.022,0.007,0.045,0.01,0.067,0.01c0.055,0,0.11-0.02,0.156-0.054 C23.962,26.537,24,26.455,24,26.375c0-1.034,0.841-1.875,1.875-1.875c0.447,0,0.885,0.168,1.231,0.473 c0.047,0.041,0.106,0.063,0.165,0.063c0.032,0,0.063-0.006,0.093-0.019c0.088-0.035,0.148-0.117,0.155-0.212 C27.623,23.512,28.712,22.5,30,22.5c0.208,0,0.425,0.034,0.682,0.107c0.023,0.007,0.047,0.01,0.07,0.01 c0.109,0,0.207-0.073,0.239-0.182c0.038-0.133-0.039-0.271-0.172-0.309C30.517,22.04,30.256,22,30,22L30,22z"/><path fill="#472b29" d="M43.883,23.5c-1.326,0-2.508,0.897-2.874,2.182c-0.038,0.133,0.039,0.271,0.172,0.309 C41.205,25.997,41.228,26,41.25,26c0.109,0,0.209-0.072,0.24-0.182C41.795,24.748,42.779,24,43.883,24 c0.117,0,0.23,0.014,0.342,0.029c0.012,0.002,0.023,0.003,0.035,0.003c0.121,0,0.229-0.092,0.246-0.217 c0.019-0.137-0.077-0.263-0.214-0.281C44.158,23.516,44.022,23.5,43.883,23.5L43.883,23.5z"/><path fill="#fff" d="M35.405,80H25.5c-0.276,0-0.5-0.224-0.5-0.5s0.224-0.5,0.5-0.5h9.905c0.276,0,0.5,0.224,0.5,0.5 S35.682,80,35.405,80z"/><path fill="#fff" d="M38.5,80h-1c-0.276,0-0.5-0.224-0.5-0.5s0.224-0.5,0.5-0.5h1c0.276,0,0.5,0.224,0.5,0.5 S38.777,80,38.5,80z"/><path fill="#fff" d="M43.491,82H34.5c-0.276,0-0.5-0.224-0.5-0.5s0.224-0.5,0.5-0.5h8.991c0.276,0,0.5,0.224,0.5,0.5 S43.767,82,43.491,82z"/><path fill="#fff" d="M32.5,82h-1c-0.276,0-0.5-0.224-0.5-0.5s0.224-0.5,0.5-0.5h1c0.276,0,0.5,0.224,0.5,0.5 S32.777,82,32.5,82z"/><path fill="#fff" d="M29.5,82h-2c-0.276,0-0.5-0.224-0.5-0.5s0.224-0.5,0.5-0.5h2c0.276,0,0.5,0.224,0.5,0.5 S29.777,82,29.5,82z"/><path fill="#fff" d="M35.5,84h-2c-0.276,0-0.5-0.224-0.5-0.5s0.224-0.5,0.5-0.5h2c0.276,0,0.5,0.224,0.5,0.5 S35.776,84,35.5,84z"/><path fill="#fff" d="M38.5,75c-0.177,0-0.823,0-1,0c-0.276,0-0.5,0.224-0.5,0.5c0,0.276,0.224,0.5,0.5,0.5 c0.177,0,0.823,0,1,0c0.276,0,0.5-0.224,0.5-0.5C39,75.224,38.776,75,38.5,75z"/><path fill="#fff" d="M38.5,77c-0.177,0-4.823,0-5,0c-0.276,0-0.5,0.224-0.5,0.5c0,0.276,0.224,0.5,0.5,0.5 c0.177,0,4.823,0,5,0c0.276,0,0.5-0.224,0.5-0.5C39,77.224,38.776,77,38.5,77z"/><path fill="#fff" d="M43.5,79c-0.177,0-2.823,0-3,0c-0.276,0-0.5,0.224-0.5,0.5c0,0.276,0.224,0.5,0.5,0.5 c0.177,0,2.823,0,3,0c0.276,0,0.5-0.224,0.5-0.5C44,79.224,43.776,79,43.5,79z"/><path fill="#fff" d="M71.5,25h-10c-0.276,0-0.5-0.224-0.5-0.5s0.224-0.5,0.5-0.5h10c0.276,0,0.5,0.224,0.5,0.5 S71.776,25,71.5,25z"/><path fill="#fff" d="M75.5,25h-2c-0.276,0-0.5-0.224-0.5-0.5s0.224-0.5,0.5-0.5h2c0.276,0,0.5,0.224,0.5,0.5 S75.776,25,75.5,25z"/><path fill="#fff" d="M80.5,27h-10c-0.276,0-0.5-0.224-0.5-0.5s0.224-0.5,0.5-0.5h10c0.276,0,0.5,0.224,0.5,0.5 S80.777,27,80.5,27z"/><path fill="#fff" d="M68.5,27h-1c-0.276,0-0.5-0.224-0.5-0.5s0.224-0.5,0.5-0.5h1c0.276,0,0.5,0.224,0.5,0.5 S68.776,27,68.5,27z"/><path fill="#fff" d="M65.375,27H63.5c-0.276,0-0.5-0.224-0.5-0.5s0.224-0.5,0.5-0.5h1.875c0.276,0,0.5,0.224,0.5,0.5 S65.651,27,65.375,27z"/><path fill="#fff" d="M74.5,23h-5c-0.276,0-0.5-0.224-0.5-0.5s0.224-0.5,0.5-0.5h5c0.276,0,0.5,0.224,0.5,0.5 S74.777,23,74.5,23z"/><path fill="#fff" d="M71.5,29h-2c-0.276,0-0.5-0.224-0.5-0.5s0.224-0.5,0.5-0.5h2c0.276,0,0.5,0.224,0.5,0.5 S71.776,29,71.5,29z"/><path fill="#fdfcef" d="M86.5,51.5c0,0,1.567,0,3.5,0s3.5-1.567,3.5-3.5c0-1.781-1.335-3.234-3.055-3.455 C90.473,44.366,90.5,44.187,90.5,44c0-1.933-1.567-3.5-3.5-3.5c-1.032,0-1.95,0.455-2.59,1.165 c-0.384-1.808-1.987-3.165-3.91-3.165c-2.209,0-4,1.791-4,4c0,0.191,0.03,0.374,0.056,0.558C76.128,42.714,75.592,42.5,75,42.5 c-1.228,0-2.245,0.887-2.455,2.055C72.366,44.527,72.187,44.5,72,44.5c-1.933,0-3.5,1.567-3.5,3.5s1.567,3.5,3.5,3.5s7.5,0,7.5,0 V52h7V51.5z"/><path fill="#472b29" d="M88.25,47C88.112,47,88,46.888,88,46.75c0-1.223,0.995-2.218,2.218-2.218 c0.034,0.009,0.737-0.001,1.244,0.136c0.133,0.036,0.212,0.173,0.176,0.306c-0.036,0.134-0.173,0.213-0.306,0.176 c-0.444-0.12-1.1-0.12-1.113-0.118c-0.948,0-1.719,0.771-1.719,1.718C88.5,46.888,88.388,47,88.25,47z"/><circle cx="81.5" cy="51.5" r=".5" fill="#472b29"/><path fill="#472b29" d="M90,52h-3.5c-0.276,0-0.5-0.224-0.5-0.5s0.224-0.5,0.5-0.5H90c1.654,0,3-1.346,3-3 c0-1.496-1.125-2.768-2.618-2.959c-0.134-0.018-0.255-0.088-0.336-0.196s-0.115-0.244-0.094-0.377C89.975,44.314,90,44.16,90,44 c0-1.654-1.346-3-3-3c-0.85,0-1.638,0.355-2.219,1c-0.125,0.139-0.321,0.198-0.5,0.148c-0.182-0.049-0.321-0.195-0.36-0.379 C83.58,40.165,82.141,39,80.5,39c-1.93,0-3.5,1.57-3.5,3.5c0,0.143,0.021,0.28,0.041,0.418c0.029,0.203-0.063,0.438-0.242,0.54 c-0.179,0.102-0.396,0.118-0.556-0.01C75.878,43.155,75.449,43,75,43c-0.966,0-1.792,0.691-1.963,1.644 c-0.048,0.267-0.296,0.446-0.569,0.405C72.314,45.025,72.16,45,72,45c-1.654,0-3,1.346-3,3s1.346,3,3,3h7.5 c0.276,0,0.5,0.224,0.5,0.5S79.776,52,79.5,52H72c-2.206,0-4-1.794-4-4s1.794-4,4-4c0.059,0,0.116,0.002,0.174,0.006 C72.588,42.82,73.711,42,75,42c0.349,0,0.689,0.061,1.011,0.18C76.176,39.847,78.126,38,80.5,38c1.831,0,3.466,1.127,4.153,2.774 C85.333,40.276,86.155,40,87,40c2.206,0,4,1.794,4,4c0,0.048-0.001,0.095-0.004,0.142C92.739,44.59,94,46.169,94,48 C94,50.206,92.206,52,90,52z"/><path fill="#472b29" d="M84.5,51c-0.159,0-0.841,0-1,0c-0.276,0-0.5,0.224-0.5,0.5c0,0.276,0.224,0.5,0.5,0.5 c0.159,0,0.841,0,1,0c0.276,0,0.5-0.224,0.5-0.5C85,51.224,84.776,51,84.5,51z"/><polygon fill="#e1e0d8" points="76,67 28,67 35,53 69,53"/><path fill="#cbc9bc" d="M29.406,72.3c-0.39,0-0.706-0.317-0.706-0.706V66.7h46.6v4.894c0,0.389-0.316,0.706-0.706,0.706 H29.406z"/><path fill="#472b29" d="M74.598,67.4l-0.005,4.2L29.4,71.594V67.4H74.598 M76,66H28v5.594C28,72.371,28.63,73,29.406,73 h45.188C75.37,73,76,72.371,76,71.594V66L76,66z"/><path fill="#85cfcc" d="M65.5,59.5c0,0.941-1.95,1.781-5,2.331C58.179,62.249,55.221,62.5,52,62.5 c-7.456,0-13.5-1.343-13.5-3s6.044-3,13.5-3c3.58,0,6.834,0.31,9.25,0.815c0.305,0.064,0.597,0.131,0.875,0.201 c0.263,0.066,0.514,0.135,0.75,0.206C64.525,58.22,65.5,58.835,65.5,59.5z"/><polygon fill="#c5def0" points="58.816,54 64.5,40.5 38.5,40.5 44.895,54"/><polygon fill="#00a5a5" points="44.658,53.5 47.5,59.5 56.5,59.5 59.026,53.5"/><path fill="#472b29" d="M56.5,59.75h-9c-0.097,0-0.185-0.056-0.226-0.143l-4.915-10.375 c-0.059-0.125-0.006-0.274,0.119-0.333c0.124-0.059,0.273-0.006,0.333,0.119l4.847,10.232h8.676l3.462-8.222 c0.054-0.127,0.199-0.187,0.328-0.133c0.127,0.054,0.187,0.2,0.133,0.328l-3.526,8.375C56.691,59.69,56.601,59.75,56.5,59.75z"/><path fill="#472b29" d="M60.763,49.625c-0.032,0-0.065-0.006-0.097-0.02c-0.127-0.054-0.187-0.2-0.133-0.328l3.591-8.528 H38.895l3.081,6.504c0.059,0.125,0.006,0.274-0.119,0.333c-0.124,0.058-0.274,0.006-0.333-0.119l-3.25-6.861 c-0.037-0.078-0.031-0.168,0.015-0.241c0.046-0.072,0.125-0.116,0.211-0.116h26c0.084,0,0.162,0.042,0.208,0.112 c0.046,0.07,0.054,0.158,0.022,0.235l-3.737,8.875C60.953,49.568,60.861,49.625,60.763,49.625z"/><circle cx="51.5" cy="34.5" r="14" fill="#77cbd2"/><path fill="#472b29" d="M51.5,21C58.944,21,65,27.056,65,34.5S58.944,48,51.5,48S38,41.944,38,34.5S44.056,21,51.5,21 M51.5,20C43.492,20,37,26.492,37,34.5S43.492,49,51.5,49S66,42.508,66,34.5S59.508,20,51.5,20L51.5,20z"/><path fill="#472b29" d="M65.514,44.964c-0.051,0-0.103-0.016-0.147-0.048c-0.111-0.081-0.136-0.238-0.055-0.349 c1.14-1.564,1.998-3.293,2.551-5.139c0.039-0.132,0.178-0.208,0.311-0.168c0.132,0.04,0.208,0.179,0.167,0.311 c-0.569,1.901-1.452,3.681-2.625,5.29C65.667,44.929,65.591,44.964,65.514,44.964z"/><path fill="#472b29" d="M68.729,36.625c-0.009,0-0.018,0-0.027-0.001c-0.137-0.015-0.237-0.138-0.222-0.275 c0.064-0.602,0.097-1.216,0.097-1.827c0-1.918-0.315-3.801-0.938-5.596c-0.045-0.13,0.024-0.273,0.154-0.318 c0.131-0.045,0.273,0.024,0.318,0.154c0.641,1.848,0.965,3.786,0.965,5.76c0,0.628-0.034,1.26-0.1,1.88 C68.964,36.53,68.855,36.625,68.729,36.625z"/><path fill="#472b29" d="M66.519,26.125c-0.086,0-0.17-0.045-0.216-0.125c-0.805-1.393-1.801-2.667-2.962-3.784 c-0.1-0.096-0.103-0.254-0.007-0.354c0.097-0.1,0.255-0.102,0.354-0.007c1.195,1.15,2.22,2.46,3.048,3.894 c0.069,0.12,0.028,0.272-0.091,0.342C66.604,26.114,66.561,26.125,66.519,26.125z"/><path fill="#472b29" d="M37.486,44.964c-0.077,0-0.153-0.036-0.202-0.103c-2.199-3.018-3.361-6.594-3.361-10.34 c0-1.871,0.292-3.713,0.869-5.475c0.043-0.132,0.185-0.203,0.315-0.16c0.131,0.043,0.203,0.184,0.16,0.315 c-0.561,1.711-0.845,3.501-0.845,5.319c0,3.64,1.129,7.113,3.266,10.045c0.081,0.112,0.057,0.268-0.055,0.349 C37.589,44.949,37.538,44.964,37.486,44.964z"/><path fill="#88ae45" d="M49,21.375c0,0-0.635,2.569,0.38,2.265c1.015-0.304,1.86-0.846,2.909-0.338 c1.049,0.507,2.334,0.71,1.894,1.319c-0.44,0.609-0.947,0.44-1.59,0.101c-0.643-0.338-0.271,0.507-0.541,0.744 c-0.271,0.237-1.184,0.237-1.15,0.913c0.034,0.676,0.203,4.126,1.319,4.532s2.3,0.507,3.01,0.169 c0.71-0.338,0.372-0.879-0.169-1.15s-1.116-1.218-1.15-1.86c-0.034-0.643,0.372-1.488,0.778-0.778 c0.406,0.71,1.353,2.063,2.266,2.368s1.251,0.406,1.556,1.184c0.304,0.778,0.913,1.387,0.643,1.996 c-0.271,0.609-0.406,1.049-0.135,1.725c0.271,0.676-0.237,1.15-0.237,1.15l0.913,0.237c0,0-0.169-1.353,0.676-1.657 c0.846-0.304,0.947-1.251,1.522-1.184c0.575,0.068,1.15,0.643,0.913,1.184c-0.237,0.541-0.034,1.691-0.034,1.691l0.981,0.068 c0,0,0.338-1.691,0.879-2.063c0.541-0.372,0-2.097,0-2.097s-0.71-4.228-3.924-7.204S51.774,20.326,49,21.375z"/><path fill="#88ae45" d="M41.875,25.125c0,0,2.561-0.403,3.217,0.056c0.656,0.459,0.394,1.444,1.115,1.509 c0.722,0.066,2.395-0.492,2.461,1.345c0.066,1.837,0.098,4.462,0.82,4.921c0.722,0.459,2.329,0.197,1.772,0.787 c-0.558,0.591-1.542,1.509-2.297,1.345s-2.428,0.82-2.92,1.542c-0.492,0.722-1.281,1.386-1.281,1.386 C43.375,39,44.425,42.237,43.5,42.625c-1.855,0.49-2.221-0.458-3.5-3.25c0,0-1.157-3.15,0.236-3.925 c0.513-0.285,1.017-1.673,0.787-2.231c-0.23-0.558,0.984-1.411,0.787-2.133c-0.197-0.722-0.295-1.083-1.083-1.083 c-0.787,0-1.968,0.098-1.936-0.164C38.825,29.578,40.125,26.25,41.875,25.125z"/><g><path fill="#472b29" d="M63.755,36.178c-0.003,0-0.006,0-0.009,0l-0.98-0.068c-0.057-0.004-0.104-0.047-0.114-0.103 c-0.009-0.048-0.207-1.194,0.042-1.763c0.09-0.204,0.026-0.391-0.042-0.511c-0.148-0.258-0.465-0.463-0.771-0.499 c-0.207-0.024-0.338,0.131-0.549,0.409c-0.058,0.075-0.118,0.154-0.184,0.232c-0.045,0.053-0.124,0.059-0.176,0.015 c-0.053-0.045-0.06-0.123-0.015-0.176c0.063-0.074,0.12-0.15,0.175-0.222c0.215-0.282,0.419-0.548,0.777-0.506 c0.385,0.045,0.771,0.296,0.958,0.623c0.138,0.24,0.157,0.501,0.055,0.735c-0.181,0.414-0.082,1.242-0.041,1.523l0.772,0.053 c0.089-0.406,0.405-1.688,0.909-2.034c0.339-0.233,0.15-1.324-0.048-1.957c-0.011-0.059-0.746-4.239-3.889-7.15 c-3.079-2.852-8.59-4.567-11.397-3.56c-0.198,0.761-0.393,1.999-0.113,2.271c0.033,0.032,0.093,0.069,0.228,0.029 c0.211-0.063,0.416-0.137,0.615-0.209l0.17-0.061c0.063-0.022,0.137,0.01,0.16,0.076c0.023,0.065-0.011,0.137-0.076,0.16 l-0.169,0.061c-0.204,0.074-0.412,0.149-0.628,0.214c-0.243,0.072-0.392-0.009-0.474-0.089c-0.487-0.473,0.005-2.364,0.063-2.578 c0.01-0.039,0.039-0.07,0.076-0.084c2.861-1.082,8.556,0.661,11.715,3.589c3.208,2.971,3.955,7.233,3.961,7.275 c0.055,0.169,0.548,1.808-0.052,2.221c-0.41,0.282-0.736,1.528-0.828,1.985C63.866,36.136,63.814,36.178,63.755,36.178z"/></g><g><path fill="#472b29" d="M59.696,36.076c-0.011,0-0.021-0.001-0.031-0.004l-0.913-0.237c-0.044-0.011-0.078-0.046-0.09-0.09 c-0.011-0.044,0.002-0.091,0.036-0.122c0.018-0.017,0.44-0.427,0.206-1.013c-0.296-0.74-0.13-1.222,0.137-1.822 c0.149-0.337-0.013-0.679-0.279-1.162l-0.136-0.25c-0.099-0.186-0.172-0.341-0.23-0.487c-0.278-0.711-0.569-0.808-1.435-1.096 l-0.044-0.015c-0.199-0.066-0.409-0.182-0.625-0.345c-0.055-0.041-0.066-0.12-0.025-0.175c0.042-0.055,0.121-0.066,0.175-0.025 c0.194,0.146,0.381,0.25,0.554,0.307l0.044,0.015c0.896,0.299,1.268,0.422,1.588,1.242c0.054,0.137,0.124,0.284,0.218,0.461 l0.134,0.247c0.246,0.446,0.5,0.908,0.289,1.384c-0.25,0.561-0.394,0.978-0.133,1.628c0.204,0.51,0.016,0.913-0.131,1.125 l0.554,0.144c-0.016-0.401,0.03-1.343,0.771-1.61c0.066-0.024,0.137,0.01,0.16,0.075c0.023,0.065-0.01,0.137-0.075,0.16 c-0.741,0.267-0.596,1.512-0.595,1.524c0.005,0.041-0.011,0.082-0.042,0.109C59.756,36.066,59.726,36.076,59.696,36.076z"/></g><g><path fill="#472b29" d="M54.15,31.409c-0.593,0-1.28-0.128-1.972-0.38c-0.389-0.141-0.705-0.608-0.939-1.388 c-0.02-0.066,0.018-0.136,0.083-0.156c0.069-0.019,0.136,0.018,0.156,0.084c0.208,0.69,0.479,1.113,0.785,1.225 c1.146,0.417,2.263,0.484,2.914,0.174c0.15-0.072,0.331-0.193,0.332-0.364c0.002-0.185-0.2-0.41-0.503-0.562 c-0.578-0.289-1.182-1.263-1.219-1.966c-0.025-0.476,0.17-1.071,0.492-1.166c0.131-0.038,0.329-0.015,0.52,0.319 c0.114,0.199,0.529,0.896,1.096,1.502c0.047,0.05,0.044,0.13-0.006,0.177c-0.051,0.047-0.13,0.045-0.177-0.006 c-0.585-0.626-1.013-1.344-1.13-1.549c-0.04-0.07-0.146-0.23-0.232-0.203c-0.155,0.046-0.335,0.497-0.313,0.913 c0.032,0.606,0.587,1.508,1.081,1.755c0.398,0.199,0.644,0.501,0.641,0.788c-0.001,0.165-0.085,0.402-0.475,0.587 C54.982,31.338,54.592,31.409,54.15,31.409z"/></g><g><path fill="#472b29" d="M51.149,28.833c-0.059,0-0.112-0.042-0.123-0.102c-0.181-0.987-0.231-2.005-0.248-2.339 c-0.028-0.565,0.473-0.737,0.838-0.863c0.148-0.051,0.287-0.099,0.354-0.157c0.064-0.056,0.072-0.215,0.079-0.354 c0.009-0.187,0.019-0.38,0.167-0.465c0.14-0.079,0.316-0.005,0.436,0.059c0.68,0.358,1.066,0.439,1.431-0.064 c0.083-0.116,0.065-0.178,0.059-0.198c-0.06-0.2-0.554-0.389-1.032-0.572c-0.274-0.105-0.585-0.224-0.874-0.363 c-0.419-0.203-0.83-0.246-1.327-0.139c-0.064,0.015-0.133-0.028-0.148-0.096c-0.015-0.068,0.028-0.134,0.096-0.149 c0.549-0.118,1.022-0.068,1.489,0.158c0.279,0.135,0.571,0.247,0.854,0.355c0.607,0.232,1.087,0.416,1.183,0.734 c0.04,0.133,0.007,0.273-0.096,0.416c-0.513,0.709-1.145,0.457-1.75,0.139c-0.152-0.08-0.196-0.063-0.196-0.063 c-0.029,0.023-0.037,0.177-0.041,0.26c-0.009,0.189-0.02,0.404-0.164,0.53c-0.104,0.09-0.266,0.146-0.437,0.205 c-0.404,0.139-0.688,0.264-0.67,0.608c0.017,0.337,0.066,1.342,0.245,2.313c0.012,0.068-0.033,0.133-0.101,0.146 C51.164,28.833,51.156,28.833,51.149,28.833z"/></g><g><path fill="#472b29" d="M48.886,31c-0.063,0-0.118-0.048-0.125-0.112c-0.079-0.773-0.108-1.648-0.134-2.42l-0.014-0.418 c-0.02-0.566-0.198-0.928-0.545-1.107c-0.062-0.032-0.085-0.107-0.054-0.168c0.031-0.062,0.107-0.085,0.168-0.054 c0.428,0.221,0.657,0.665,0.681,1.32l0.014,0.419c0.026,0.768,0.055,1.639,0.133,2.403c0.007,0.069-0.043,0.13-0.112,0.137 C48.894,31,48.89,31,48.886,31z"/></g><g><path fill="#472b29" d="M46.207,26.816c-0.003,0-0.007,0-0.011,0c-0.472-0.043-0.596-0.412-0.716-0.77 c-0.095-0.282-0.192-0.574-0.46-0.761c-0.057-0.04-0.07-0.118-0.031-0.174c0.04-0.057,0.117-0.07,0.174-0.031 c0.334,0.234,0.451,0.581,0.553,0.887c0.123,0.365,0.207,0.574,0.501,0.6c0.069,0.006,0.12,0.067,0.113,0.136 C46.326,26.767,46.271,26.816,46.207,26.816z"/></g><g><path fill="#472b29" d="M41.683,31.887c-0.02,0-0.039-0.005-0.058-0.014c-0.061-0.032-0.085-0.107-0.053-0.168 c0.124-0.24,0.162-0.426,0.118-0.585c-0.197-0.721-0.27-0.99-0.962-0.99c-0.166,0-0.349,0.004-0.534,0.009 c-0.812,0.02-1.317,0.023-1.473-0.15c-0.042-0.046-0.06-0.104-0.053-0.164c0.029-0.23,1.114-3.455,3.137-4.804 c0.018-0.012,0.039-0.019,0.061-0.021c0.016-0.001,1.598-0.108,2.346-0.124c0.083,0.003,0.127,0.053,0.128,0.122 c0.001,0.069-0.053,0.126-0.122,0.128c-0.683,0.015-2.069,0.106-2.302,0.122c-1.883,1.277-2.915,4.22-2.996,4.584 c0.146,0.084,0.844,0.067,1.268,0.057c0.188-0.005,0.373-0.009,0.54-0.009c0.883,0,1.003,0.442,1.203,1.175 c0.061,0.224,0.017,0.467-0.138,0.766C41.772,31.863,41.728,31.887,41.683,31.887z"/></g><g><path fill="#472b29" d="M39.672,38.143c-0.044,0-0.087-0.023-0.11-0.065c-0.293-0.537-0.327-1.46-0.074-2.059 c0.153-0.364,0.4-0.602,0.714-0.689c0.151-0.042,0.32-0.234,0.463-0.528c0.257-0.526,0.368-1.229,0.242-1.535 c-0.107-0.261,0.028-0.544,0.175-0.787c0.036-0.059,0.114-0.078,0.171-0.042c0.059,0.036,0.078,0.113,0.042,0.172 c-0.16,0.265-0.209,0.439-0.158,0.563c0.172,0.418,0.009,1.212-0.249,1.739c-0.125,0.257-0.335,0.58-0.621,0.66 c-0.241,0.067-0.426,0.25-0.551,0.545c-0.247,0.583-0.167,1.423,0.063,1.842c0.033,0.061,0.011,0.137-0.05,0.17 C39.713,38.138,39.692,38.143,39.672,38.143z"/></g><g><path fill="#472b29" d="M45.434,37.5c-0.031,0-0.062-0.011-0.086-0.034c-0.05-0.047-0.052-0.126-0.005-0.177 c0.24-0.254,0.44-0.499,0.597-0.728c0.529-0.776,2.264-1.765,3.05-1.594c0.513,0.112,1.265-0.341,2.18-1.309 c0.08-0.085,0.081-0.12,0.081-0.12c-0.04-0.061-0.39-0.111-0.621-0.143c-0.413-0.058-0.88-0.124-1.208-0.333 c-0.059-0.037-0.076-0.114-0.039-0.172c0.038-0.058,0.116-0.075,0.172-0.038c0.282,0.179,0.741,0.244,1.109,0.296 c0.436,0.062,0.75,0.106,0.823,0.312c0.058,0.165-0.088,0.32-0.136,0.371c-0.992,1.05-1.809,1.513-2.414,1.381 c-0.679-0.148-2.317,0.797-2.79,1.49c-0.164,0.24-0.373,0.496-0.622,0.759C45.5,37.487,45.467,37.5,45.434,37.5z"/></g><g><path fill="#472b29" d="M63.292,32.625c-0.12,0-0.226-0.087-0.246-0.209c-0.183-1.1-0.525-2.164-1.019-3.162 c-0.061-0.124-0.01-0.274,0.113-0.335c0.124-0.06,0.273-0.011,0.335,0.113c0.516,1.042,0.874,2.153,1.064,3.302 c0.022,0.136-0.069,0.265-0.206,0.287C63.32,32.624,63.306,32.625,63.292,32.625z"/></g><g><path fill="#472b29" d="M61.61,28.262c-0.082,0-0.163-0.041-0.21-0.115c-0.559-0.87-1.234-1.661-2.008-2.351 c-0.103-0.092-0.112-0.25-0.02-0.353c0.091-0.103,0.249-0.112,0.353-0.02c0.808,0.721,1.513,1.547,2.096,2.454 c0.075,0.116,0.041,0.271-0.075,0.345C61.704,28.249,61.657,28.262,61.61,28.262z"/></g><g><path fill="#472b29" d="M43.262,42.829c-0.204,0-0.453-0.054-0.762-0.121c-0.122-0.027-0.255-0.056-0.4-0.085 c-0.873-0.175-1.552-1.564-1.968-2.698c-0.024-0.065,0.009-0.137,0.074-0.16c0.065-0.024,0.137,0.01,0.16,0.074 c0.323,0.88,0.983,2.379,1.782,2.539c0.146,0.029,0.281,0.058,0.404,0.085c0.474,0.103,0.788,0.172,0.947,0.055 c0.128-0.093,0.205-0.334,0.25-0.781c0.048-0.48,0.059-0.983,0.068-1.427c0.019-0.877,0.038-1.344,0.218-1.524 c0.049-0.049,0.128-0.049,0.177,0s0.049,0.128,0,0.177c-0.118,0.118-0.132,0.774-0.145,1.352c-0.01,0.449-0.021,0.957-0.069,1.447 c-0.054,0.538-0.156,0.816-0.352,0.958C43.541,42.798,43.414,42.829,43.262,42.829z"/></g><g><path fill="#88ae45" d="M58.75,39.75c0,0-1.125,0.875-2.125,1.25s-1.75,1.875-2,2.75s1.375,1.5,2.25,0.375s1.375-1,2.125-1 s2.019-0.433,2.375-1.5C62,39.75,59.5,37.375,58.75,39.75z"/><path fill="#472b29" d="M55.677,44.855c-0.24,0-0.469-0.055-0.663-0.153c-0.42-0.213-0.62-0.6-0.509-0.987 c0.264-0.925,1.035-2.442,2.076-2.833c0.881-0.33,1.877-1.069,2.062-1.208c0.243-0.734,0.632-0.963,0.919-1.025 c0.427-0.092,0.93,0.127,1.343,0.587c0.507,0.566,0.886,1.536,0.588,2.428C61.108,42.82,59.76,43.25,59,43.25 c-0.07,0-0.139-0.001-0.206-0.002c-0.618-0.011-1.066-0.017-1.821,0.954C56.616,44.661,56.128,44.855,55.677,44.855z M59.763,38.878c-0.051,0-0.1,0.005-0.148,0.016c-0.326,0.07-0.583,0.379-0.746,0.894l-0.012,0.037l-0.031,0.024 c-0.046,0.036-1.151,0.891-2.158,1.268c-0.948,0.355-1.683,1.825-1.924,2.667c-0.092,0.323,0.137,0.571,0.382,0.695 c0.468,0.238,1.185,0.166,1.649-0.431c0.832-1.069,1.357-1.062,2.022-1.05C58.864,42.999,58.931,43,59,43 c0.741,0,1.931-0.439,2.256-1.415c0.266-0.797-0.079-1.67-0.538-2.182C60.417,39.067,60.07,38.878,59.763,38.878z"/></g><g><ellipse cx="52" cy="59.5" fill="#fdfcef" rx="4.5" ry="1"/><path fill="#472b29" d="M52,60.75c-1.764,0-4.75-0.263-4.75-1.25s2.986-1.25,4.75-1.25s4.75,0.263,4.75,1.25 S53.764,60.75,52,60.75z M52,58.75c-2.651,0-4.176,0.491-4.25,0.754c0.074,0.255,1.599,0.746,4.25,0.746 c2.637,0,4.16-0.486,4.249-0.75C56.16,59.236,54.637,58.75,52,58.75z M56.25,59.504h0.006H56.25z"/></g><g><path fill="#472b29" d="M74.758,66.705l-6.62-12.38H35.862l-6.62,12.38l-1.234-0.66l6.818-12.75 c0.122-0.228,0.359-0.37,0.617-0.37h33.114c0.258,0,0.496,0.142,0.617,0.37l6.818,12.75L74.758,66.705z"/></g><g><ellipse cx="36.5" cy="63" fill="#88ae45" rx="2.5" ry="1"/></g><g><ellipse cx="67.5" cy="63" fill="#ee3e54" rx="2.5" ry="1"/></g><g><path fill="#472b29" d="M36.5,64.125c-1.472,0-2.625-0.494-2.625-1.125c0-0.296,0.248-0.571,0.698-0.775l0.104,0.228 c-0.351,0.159-0.552,0.358-0.552,0.547c0,0.414,0.976,0.875,2.375,0.875s2.375-0.461,2.375-0.875s-0.976-0.875-2.375-0.875v-0.25 c1.472,0,2.625,0.494,2.625,1.125S37.972,64.125,36.5,64.125z"/></g><g><path fill="#472b29" d="M67.5,64.125c-1.472,0-2.625-0.494-2.625-1.125s1.153-1.125,2.625-1.125s2.625,0.494,2.625,1.125 c0,0.296-0.248,0.571-0.698,0.775l-0.104-0.228c0.351-0.159,0.552-0.358,0.552-0.547c0-0.414-0.976-0.875-2.375-0.875 S65.125,62.586,65.125,63s0.976,0.875,2.375,0.875c0.083,0,0.165-0.002,0.245-0.005l0.01,0.25 C67.671,64.123,67.586,64.125,67.5,64.125z"/></g><g><path fill="#472b29" d="M42,57.735c-0.113,0-0.215-0.076-0.243-0.191c-0.033-0.134,0.049-0.269,0.183-0.302 c0.818-0.2,1.751-0.375,2.774-0.521c1.093-0.155,2.277-0.274,3.519-0.354c0.137-0.008,0.257,0.096,0.266,0.234 c0.009,0.138-0.096,0.257-0.233,0.266c-1.23,0.079-2.401,0.196-3.481,0.35c-1.007,0.143-1.924,0.315-2.726,0.511 C42.04,57.732,42.02,57.735,42,57.735z"/></g><g><path fill="#472b29" d="M52,62.75c-6.666,0-13.75-1.139-13.75-3.25c0-0.617,0.599-1.175,1.78-1.659 c0.127-0.052,0.274,0.009,0.326,0.136c0.052,0.128-0.009,0.274-0.137,0.326c-0.947,0.388-1.469,0.813-1.469,1.197 c0,1.301,5.441,2.75,13.25,2.75c2.516,0,4.968-0.155,7.091-0.449c0.133-0.019,0.263,0.076,0.282,0.213 c0.019,0.137-0.077,0.263-0.213,0.282C57.014,62.593,54.538,62.75,52,62.75z"/></g><g><path fill="#472b29" d="M61.375,61.909c-0.115,0-0.219-0.08-0.244-0.198c-0.029-0.135,0.057-0.268,0.192-0.297 c2.896-0.621,3.927-1.396,3.927-1.914c0-0.531-1.007-1.133-2.693-1.61c-0.133-0.038-0.21-0.176-0.173-0.309 c0.038-0.133,0.175-0.21,0.309-0.172c2.029,0.574,3.057,1.278,3.057,2.092c0,1.22-2.351,1.98-4.323,2.403 C61.41,61.907,61.392,61.909,61.375,61.909z"/></g><g><path fill="#472b29" d="M60.75,57.465c-0.016,0-0.031-0.001-0.047-0.004c-1.542-0.292-3.389-0.505-5.343-0.617 C54.269,56.782,53.138,56.75,52,56.75c-0.138,0-0.25-0.112-0.25-0.25s0.112-0.25,0.25-0.25c1.147,0,2.288,0.032,3.389,0.095 c1.975,0.113,3.845,0.329,5.407,0.625c0.136,0.026,0.225,0.156,0.199,0.292C60.973,57.382,60.868,57.465,60.75,57.465z"/></g></svg>