<svg xmlns="http://www.w3.org/2000/svg"  viewBox="0 0 100 100" width="200px" height="200px"><path fill="#c8ede6" d="M86.876,56.546c0.3-0.616,0.566-1.264,0.796-1.943c2.633-7.77-1.349-17.078-9.733-19.325c-0.906-11.384-8.906-19.193-17.941-20.526c-10.341-1.525-19.814,5.044-22.966,15.485c-3.799-1.346-7.501-1.182-10.99,0.857c-1.583,0.732-3.031,1.812-4.33,3.233c-1.907,2.086-3.147,4.719-3.652,7.495c-0.748,0.118-1.483,0.236-2.176,0.484c-4.04,1.449-6.589,4.431-7.288,8.923c-0.435,2.797,0.443,5.587,0.933,6.714c1.935,4.455,6.422,6.98,10.981,6.312c0.227-0.033,0.557,0.069,0.752,0.233c0.241,7.12,3.698,13.417,8.884,17.014c8.321,5.772,19.027,3.994,25.781-3.921c2.894,2.96,6.338,4.398,10.384,3.876c4.023-0.519,7.147-2.739,9.426-6.349c1.053,0.283,2.051,0.691,3.083,0.804c4.042,0.442,7.297-1.184,9.732-4.8c0.083-0.124,0.203-0.219,0.306-0.328c0.348-0.798,0.696-1.596,1.044-2.394c0.155-1.211,0.429-2.423,0.443-3.632C90.384,61.503,89.053,58.536,86.876,56.546z"/><path fill="#fff" d="M16.541 48.582H6.511c-.276 0-.5-.224-.5-.5s.224-.5.5-.5h10.03c.276 0 .5.224.5.5S16.818 48.582 16.541 48.582zM19.422 48.582h-1.445c-.276 0-.5-.224-.5-.5s.224-.5.5-.5h1.445c.276 0 .5.224.5.5S19.699 48.582 19.422 48.582zM23.477 48.582h-2.546c-.276 0-.5-.224-.5-.5s.224-.5.5-.5h2.546c.276 0 .5.224.5.5S23.753 48.582 23.477 48.582zM23.477 50.447h-9.616c-.276 0-.5-.224-.5-.5s.224-.5.5-.5h9.616c.276 0 .5.224.5.5S23.753 50.447 23.477 50.447zM12.129 50.447h-.58c-.276 0-.5-.224-.5-.5s.224-.5.5-.5h.58c.276 0 .5.224.5.5S12.406 50.447 12.129 50.447zM9.752 50.447H8.296c-.276 0-.5-.224-.5-.5s.224-.5.5-.5h1.456c.276 0 .5.224.5.5S10.029 50.447 9.752 50.447zM18.888 46.717h-5.027c-.276 0-.5-.224-.5-.5s.224-.5.5-.5h5.027c.276 0 .5.224.5.5S19.164 46.717 18.888 46.717zM18.888 44.852h-1.257c-.276 0-.5-.224-.5-.5s.224-.5.5-.5h1.257c.276 0 .5.224.5.5S19.164 44.852 18.888 44.852zM15.62 52.312h-1.759c-.276 0-.5-.224-.5-.5s.224-.5.5-.5h1.759c.276 0 .5.224.5.5S15.896 52.312 15.62 52.312zM69.719 22.305h-10.03c-.276 0-.5-.224-.5-.5s.224-.5.5-.5h10.03c.276 0 .5.224.5.5S69.996 22.305 69.719 22.305zM72.6 22.305h-1.445c-.276 0-.5-.224-.5-.5s.224-.5.5-.5H72.6c.276 0 .5.224.5.5S72.876 22.305 72.6 22.305zM76.655 22.305h-2.546c-.276 0-.5-.224-.5-.5s.224-.5.5-.5h2.546c.276 0 .5.224.5.5S76.931 22.305 76.655 22.305zM74.629 18.576h-9.616c-.276 0-.5-.224-.5-.5s.224-.5.5-.5h9.616c.276 0 .5.224.5.5S74.906 18.576 74.629 18.576zM63.282 18.576h-.58c-.276 0-.5-.224-.5-.5s.224-.5.5-.5h.58c.276 0 .5.224.5.5S63.558 18.576 63.282 18.576zM60.905 18.576h-1.457c-.276 0-.5-.224-.5-.5s.224-.5.5-.5h1.457c.276 0 .5.224.5.5S61.181 18.576 60.905 18.576zM72.066 20.44h-5.027c-.276 0-.5-.224-.5-.5s.224-.5.5-.5h5.027c.276 0 .5.224.5.5S72.342 20.44 72.066 20.44z"/><path fill="#fff" d="M72.066 18.576h-1.257c-.276 0-.5-.224-.5-.5s.224-.5.5-.5h1.257c.276 0 .5.224.5.5S72.342 18.576 72.066 18.576zM65.583 20.44h-1.759c-.276 0-.5-.224-.5-.5s.224-.5.5-.5h1.759c.276 0 .5.224.5.5S65.86 20.44 65.583 20.44z"/><path fill="#aae1e2" d="M76.796,64.476H33.54c-2.75,0-5-2.25-5-5V32.82c0-2.75,2.25-5,5-5h43.256c2.75,0,5,2.25,5,5v26.657C81.796,62.226,79.546,64.476,76.796,64.476z"/><path fill="#472b29" d="M76.795,65.177H33.539c-3.143,0-5.7-2.558-5.7-5.7V32.82c0-3.143,2.558-5.7,5.7-5.7h43.256c3.143,0,5.7,2.558,5.7,5.7v26.657C82.496,62.62,79.938,65.177,76.795,65.177z M33.539,28.52c-2.371,0-4.3,1.929-4.3,4.3v26.657c0,2.371,1.929,4.3,4.3,4.3h43.256c2.371,0,4.3-1.929,4.3-4.3V32.82c0-2.371-1.929-4.3-4.3-4.3H33.539z"/><path fill="#fdfcee" d="M32.342,63.855h45.159c2.048-0.089,3.602-2.15,3.602-3.839l0.005-3.839H29.565h-0.337v3.839C29.228,62.202,31.485,63.855,32.342,63.855z"/><path fill="#cdcbbd" d="M66.566,71.393h-1.279c-1.858,0-3.378-1.217-3.378-2.704v-3.807c0-0.139,0.026-0.272,0.051-0.406H47.334c0.026,0.133,0.051,0.267,0.051,0.406v3.829c0,1.475-1.561,2.682-3.469,2.682H43.77c-0.917,0-1.668,0.778-1.668,1.729s0.751,1.729,1.668,1.729h22.796c0.917,0,1.668-0.778,1.668-1.729S67.483,71.393,66.566,71.393z"/><path fill="#472b29" d="M66.566 75.351H43.77c-1.195 0-2.168-1-2.168-2.229 0-1.229.973-2.229 2.168-2.229h.146c1.609 0 2.969-.999 2.969-2.182v-3.829c0-.103-.021-.201-.041-.3-.027-.146.01-.304.105-.419.095-.114.234-.187.384-.187h14.628c.149 0 .29.066.386.182.095.114.134.266.105.412-.021.11-.043.209-.043.312v3.807c0 1.216 1.291 2.204 2.878 2.204h1.278c1.195 0 2.168 1 2.168 2.229C68.734 74.351 67.761 75.351 66.566 75.351zM43.77 71.893c-.644 0-1.168.551-1.168 1.229s.524 1.229 1.168 1.229h22.796c.644 0 1.168-.552 1.168-1.229s-.524-1.229-1.168-1.229h-1.278c-2.139 0-3.878-1.438-3.878-3.204v-3.712H47.885v3.734c0 1.754-1.78 3.182-3.969 3.182H43.77zM81.612 56.206H28.724c-.207 0-.375-.168-.375-.375s.168-.375.375-.375h52.888c.207 0 .375.168.375.375S81.819 56.206 81.612 56.206z"/><path fill="#cdcbbd" d="M55.168 57.906A1.729 1.729 0 1 0 55.168 61.364A1.729 1.729 0 1 0 55.168 57.906Z"/><path fill="#472b29" d="M55.167 61.739c-1.16 0-2.104-.943-2.104-2.104s.943-2.104 2.104-2.104 2.104.944 2.104 2.104S56.328 61.739 55.167 61.739zM55.167 58.281c-.746 0-1.354.607-1.354 1.354 0 .746.607 1.354 1.354 1.354.747 0 1.354-.607 1.354-1.354C56.522 58.888 55.914 58.281 55.167 58.281zM55.859 30.586h-1.383c-.19 0-.346-.156-.346-.346l0 0c0-.19.156-.346.346-.346h1.383c.19 0 .346.156.346.346l0 0C56.205 30.431 56.05 30.586 55.859 30.586z"/><path fill="#ddf2f1" d="M78.542 35.139L78.542 52.947 31.736 52.947 31.736 50.681 31.736 43.557 31.736 32.873 77.539 32.873 78.542 32.873z"/><path fill="#472b29" d="M78.599 53.322H31.794c-.207 0-.375-.168-.375-.375v-2.266c0-.207.168-.375.375-.375.207 0 .375.168.375.375v1.891h46.055V35.139c0-.207.168-.375.375-.375s.375.168.375.375v17.808C78.974 53.154 78.806 53.322 78.599 53.322zM31.794 43.932c-.207 0-.375-.168-.375-.375V32.872c0-.207.168-.375.375-.375h45.802c.207 0 .375.168.375.375s-.168.375-.375.375H32.169v10.31C32.169 43.764 32.001 43.932 31.794 43.932zM31.794 49.113c-.207 0-.375-.168-.375-.375v-2.59c0-.207.168-.375.375-.375.207 0 .375.168.375.375v2.59C32.169 48.945 32.001 49.113 31.794 49.113zM56.433 71.846h-1.384c-.207 0-.375-.168-.375-.375s.168-.375.375-.375h1.384c.207 0 .375.168.375.375S56.64 71.846 56.433 71.846zM53.666 71.846h-8.991c-.207 0-.375-.168-.375-.375s.168-.375.375-.375h8.991c.207 0 .375.168.375.375S53.873 71.846 53.666 71.846z"/><path fill="#fdfcef" d="M34.295,70.919c0,0,11.882,0,11.954,0c2.744,0,4.968-2.272,4.968-5.075c0-2.445-1.693-4.486-3.947-4.967c0.026-0.214,0.044-0.431,0.044-0.652c0-2.903-2.304-5.256-5.146-5.256c-1.678,0-3.164,0.824-4.103,2.094c-0.24-3.231-3.066-5.724-6.372-5.311c-2.417,0.302-4.417,2.211-4.862,4.657c-0.143,0.784-0.128,1.546,0.014,2.26c-0.648-0.713-1.571-1.162-2.598-1.162c-1.881,0-3.416,1.496-3.537,3.385c-0.854-0.193-1.783-0.18-2.761,0.195c-1.87,0.717-3.202,2.516-3.28,4.554c-0.111,2.896,2.154,5.278,4.964,5.278c0.213,0,0.963,0,1.137,0h10.317"/><path fill="#472b29" d="M46.249,71.419H34.294c-0.276,0-0.5-0.224-0.5-0.5s0.224-0.5,0.5-0.5h11.955c2.464,0,4.468-2.053,4.468-4.575c0-2.156-1.493-4.039-3.552-4.478c-0.253-0.055-0.424-0.293-0.392-0.55c0.023-0.195,0.04-0.391,0.04-0.592c0-2.623-2.084-4.757-4.646-4.757c-1.463,0-2.812,0.689-3.701,1.892c-0.125,0.166-0.341,0.237-0.541,0.183c-0.201-0.059-0.345-0.235-0.36-0.443c-0.108-1.458-0.812-2.819-1.931-3.735c-1.093-0.896-2.467-1.291-3.881-1.117c-2.204,0.276-4.026,2.024-4.432,4.251c-0.127,0.696-0.123,1.395,0.013,2.073c0.044,0.22-0.064,0.442-0.265,0.544c-0.202,0.102-0.443,0.057-0.596-0.109c-0.586-0.645-1.377-0.999-2.229-0.999c-1.598,0-2.933,1.281-3.038,2.918c-0.01,0.146-0.082,0.28-0.2,0.368c-0.117,0.088-0.271,0.12-0.409,0.087c-0.854-0.193-1.662-0.137-2.472,0.174c-1.701,0.652-2.89,2.302-2.958,4.105c-0.05,1.28,0.405,2.486,1.281,3.396c0.847,0.88,1.977,1.364,3.183,1.364h11.453c0.276,0,0.5,0.224,0.5,0.5s-0.224,0.5-0.5,0.5H19.633c-1.48,0-2.866-0.594-3.903-1.671c-1.065-1.107-1.62-2.573-1.561-4.128c0.084-2.197,1.53-4.208,3.601-5.001c0.816-0.312,1.66-0.417,2.513-0.31c0.377-1.892,2.024-3.304,3.964-3.304c0.698,0,1.383,0.188,1.984,0.534c-0.002-0.406,0.033-0.814,0.107-1.223c0.483-2.651,2.659-4.733,5.292-5.063c1.684-0.209,3.33,0.265,4.639,1.336c1.05,0.859,1.792,2.048,2.121,3.361c1.028-0.953,2.358-1.483,3.778-1.483c3.113,0,5.646,2.582,5.646,5.757c0,0.093-0.003,0.184-0.008,0.274c2.291,0.693,3.911,2.872,3.911,5.345C51.717,68.918,49.264,71.419,46.249,71.419z"/><path fill="#fdfcef" d="M31.415,59.739c-1.838-0.123-3.42,1.173-3.533,2.896c-0.014,0.214-0.005,0.424,0.026,0.629c-0.355-0.409-0.88-0.686-1.482-0.727c-1.102-0.074-2.055,0.67-2.193,1.681c-0.201-0.056-0.41-0.094-0.627-0.108c-1.608-0.108-2.992,1.027-3.092,2.534"/><path fill="#472b29" d="M20.515,66.894c-0.005,0-0.011,0-0.017-0.001c-0.138-0.009-0.242-0.128-0.232-0.266c0.05-0.763,0.403-1.468,0.995-1.984c0.634-0.556,1.495-0.851,2.362-0.781c0.138,0.009,0.277,0.027,0.417,0.055c0.275-1.004,1.271-1.704,2.402-1.628c0.435,0.028,0.84,0.167,1.187,0.398c0.001-0.023,0.002-0.046,0.004-0.068c0.057-0.862,0.456-1.659,1.124-2.244c0.718-0.628,1.695-0.952,2.675-0.884c0.138,0.009,0.242,0.128,0.232,0.266c-0.009,0.138-0.12,0.255-0.266,0.232c-0.858-0.056-1.694,0.221-2.312,0.762c-0.567,0.497-0.906,1.173-0.955,1.901c-0.013,0.189-0.005,0.383,0.023,0.576c0.017,0.109-0.042,0.217-0.143,0.264c-0.104,0.044-0.222,0.02-0.293-0.063c-0.329-0.379-0.794-0.606-1.31-0.642c-0.97-0.067-1.808,0.58-1.928,1.467c-0.01,0.071-0.05,0.135-0.11,0.175c-0.06,0.04-0.137,0.05-0.204,0.032c-0.193-0.054-0.388-0.087-0.577-0.101c-0.733-0.047-1.466,0.19-2,0.659c-0.491,0.43-0.784,1.013-0.826,1.642C20.755,66.792,20.646,66.894,20.515,66.894z"/><path fill="#fdfcef" d="M48.261,61.472c-1.727-0.832-3.724-0.243-4.461,1.315c-0.092,0.194-0.159,0.393-0.204,0.595"/><path fill="#472b29" d="M43.596 63.632c-.018 0-.036-.002-.055-.006-.135-.03-.22-.164-.189-.299.05-.225.125-.442.223-.648.358-.758 1.01-1.336 1.834-1.628.939-.331 2.016-.258 2.96.195.124.061.177.21.117.334-.059.125-.208.177-.334.117-.826-.397-1.763-.463-2.576-.175-.698.247-1.248.733-1.55 1.37-.081.172-.144.354-.186.544C43.814 63.553 43.711 63.632 43.596 63.632zM48.982 74.823c-.024 0-.048-.006-.07-.019-.073-.039-.101-.13-.062-.202l.493-.922c.038-.073.13-.103.202-.062.073.039.101.13.062.202l-.493.922C49.087 74.793 49.036 74.823 48.982 74.823zM47.924 74.859c-.024 0-.048-.006-.07-.019-.073-.039-.101-.13-.062-.202l1.304-2.438c.038-.074.13-.103.202-.062.073.039.101.13.062.202l-1.304 2.438C48.03 74.829 47.978 74.859 47.924 74.859zM46.867 75.001c-.024 0-.048-.006-.07-.019-.073-.039-.101-.13-.062-.202l1.693-3.166c.039-.074.131-.103.202-.062.073.039.101.13.062.202l-1.693 3.166C46.972 74.972 46.92 75.001 46.867 75.001zM45.809 74.895c-.024 0-.048-.006-.07-.019-.073-.039-.101-.13-.062-.202l1.694-3.166c.038-.073.131-.103.202-.062.073.039.101.13.062.202l-1.694 3.166C45.914 74.866 45.863 74.895 45.809 74.895zM44.751 74.93c-.024 0-.048-.006-.07-.019-.073-.039-.101-.13-.062-.202l1.694-3.166c.038-.074.131-.102.202-.062.073.039.101.13.062.202l-1.694 3.166C44.857 74.901 44.805 74.93 44.751 74.93zM43.695 74.966c-.024 0-.048-.006-.07-.019-.073-.039-.101-.13-.062-.202l1.693-3.166c.039-.073.131-.102.202-.062.073.039.101.13.062.202l-1.693 3.166C43.8 74.937 43.748 74.966 43.695 74.966zM42.637 74.787c-.024 0-.048-.006-.07-.019-.073-.039-.101-.13-.062-.202l1.693-3.166c.038-.074.131-.103.202-.062.073.039.101.13.062.202l-1.693 3.166C42.743 74.758 42.691 74.787 42.637 74.787z"/><path fill="#bcbce2" d="M63.508,46.348c0.499-1.241,1.498-1.736,2.797-1.692c0.219-0.701,0.243-2.924,0.039-3.543c-1.284,0.044-2.265-0.465-2.759-1.671c-0.501-1.226-0.133-2.279,0.837-3.157c-0.693-0.98-1.523-1.829-2.494-2.539c-0.817,0.905-1.808,1.268-2.951,0.876c-1.355-0.464-1.917-1.507-1.849-2.913c-1.191-0.196-2.373-0.208-3.554-0.023c0.051,1.302-0.448,2.286-1.657,2.784c-1.224,0.504-2.28,0.148-3.161-0.824c-0.973,0.696-1.812,1.527-2.518,2.499c0.924,0.87,1.265,1.904,0.794,3.082c-0.489,1.225-1.481,1.74-2.795,1.697c-0.197,1.179-0.199,2.354-0.013,3.534c1.266-0.02,2.225,0.482,2.715,1.655c0.499,1.195,0.174,2.243-0.761,3.126c0.697,0.973,1.522,1.809,2.488,2.514c0.03-0.025,0.05-0.039,0.066-0.056c0.817-0.844,1.972-1.113,2.983-0.697c1.081,0.445,1.716,1.425,1.691,2.625c-0.003,0.131,0.05,0.15,0.156,0.167c1.073,0.169,2.148,0.181,3.225,0.036c0.059-0.008,0.117-0.021,0.164-0.03c-0.016-1.17,0.422-2.086,1.466-2.601c1.255-0.619,2.37-0.313,3.33,0.687c0.977-0.688,1.82-1.507,2.529-2.465C63.372,48.544,63.034,47.525,63.508,46.348z M54.521,44.498c-0.975-0.422-1.424-1.548-1.004-2.52c0.421-0.974,1.55-1.417,2.53-0.987c0.979,0.429,1.416,1.578,0.966,2.553C56.596,44.449,55.515,44.915,54.521,44.498z"/><path fill="#472b29" d="M55.301,54.303c-0.602,0-1.202-0.047-1.798-0.141c-0.42-0.065-0.477-0.37-0.473-0.546c0.022-1.035-0.523-1.885-1.458-2.27c-0.873-0.358-1.857-0.124-2.571,0.611c-0.012,0.012-0.071,0.063-0.084,0.073c-0.13,0.105-0.336,0.125-0.473,0.024c-0.99-0.722-1.855-1.596-2.571-2.599c-0.109-0.152-0.089-0.362,0.047-0.49c0.871-0.821,1.091-1.708,0.673-2.709c-0.409-0.978-1.188-1.424-2.363-1.425c-0.187,0.043-0.348-0.132-0.376-0.316c-0.192-1.223-0.188-2.452,0.013-3.654c0.03-0.182,0.188-0.313,0.37-0.313c0.004,0,0.008,0,0.013,0c1.207,0.039,2.025-0.438,2.434-1.461c0.392-0.983,0.162-1.856-0.703-2.67c-0.138-0.13-0.157-0.341-0.047-0.494c0.724-0.995,1.6-1.864,2.604-2.583c0.154-0.11,0.368-0.09,0.496,0.053c0.826,0.91,1.721,1.147,2.741,0.729c1.007-0.414,1.473-1.206,1.425-2.423c-0.007-0.19,0.129-0.355,0.316-0.385c1.2-0.189,2.436-0.181,3.674,0.023c0.188,0.031,0.323,0.198,0.314,0.388c-0.063,1.319,0.458,2.15,1.595,2.54c0.957,0.327,1.788,0.073,2.553-0.772c0.128-0.144,0.345-0.166,0.5-0.052c0.991,0.727,1.858,1.609,2.577,2.625c0.11,0.155,0.087,0.367-0.054,0.495c-0.915,0.827-1.157,1.723-0.742,2.736c0.413,1.01,1.194,1.501,2.399,1.438c0.147,0.011,0.317,0.1,0.369,0.258c0.229,0.697,0.207,2.988-0.037,3.771c-0.051,0.16-0.182,0.27-0.371,0.264c-1.218-0.041-2.025,0.435-2.437,1.457l0,0c-0.39,0.97-0.167,1.841,0.681,2.662c0.135,0.131,0.152,0.342,0.041,0.492c-0.726,0.981-1.604,1.839-2.614,2.55c-0.151,0.105-0.357,0.087-0.486-0.047c-0.892-0.93-1.84-1.13-2.894-0.611c-0.861,0.426-1.272,1.165-1.257,2.261c0.003,0.183-0.127,0.341-0.308,0.374l-0.177,0.032C56.33,54.269,55.815,54.303,55.301,54.303z M53.78,53.446c0.941,0.13,1.877,0.142,2.804,0.031c0.071-1.209,0.644-2.11,1.668-2.615c1.253-0.618,2.468-0.433,3.531,0.534c0.754-0.563,1.425-1.217,2-1.948c-0.87-0.974-1.086-2.087-0.622-3.239c0.491-1.223,1.472-1.885,2.846-1.928c0.121-0.713,0.14-2.114,0.037-2.793c-1.346-0.045-2.312-0.698-2.805-1.904c-0.494-1.206-0.256-2.355,0.688-3.341c-0.567-0.754-1.225-1.424-1.96-1.998c-0.911,0.866-1.98,1.121-3.111,0.731c-1.353-0.463-2.075-1.478-2.106-2.944c-0.944-0.129-1.882-0.135-2.8-0.021c-0.045,1.348-0.693,2.313-1.891,2.806c-1.208,0.499-2.36,0.265-3.344-0.675c-0.747,0.568-1.413,1.229-1.984,1.969c0.89,0.968,1.114,2.087,0.649,3.255c-0.486,1.218-1.458,1.881-2.821,1.933c-0.125,0.921-0.129,1.857-0.009,2.792c1.308,0.073,2.25,0.719,2.734,1.879c0.497,1.189,0.283,2.326-0.614,3.306c0.568,0.749,1.229,1.416,1.969,1.989c0.93-0.814,2.153-1.051,3.219-0.61C53.034,51.138,53.742,52.173,53.78,53.446z M63.508,46.348h0.01H63.508z M55.282,45.028c-0.302,0-0.609-0.06-0.906-0.185c0,0-0.002-0.001-0.003-0.001c-0.563-0.244-0.998-0.69-1.225-1.259c-0.227-0.569-0.218-1.192,0.025-1.754c0.242-0.562,0.689-0.995,1.258-1.219c0.573-0.226,1.199-0.212,1.767,0.036c0.566,0.248,0.999,0.704,1.219,1.282c0.22,0.579,0.197,1.208-0.062,1.771C56.969,44.536,56.15,45.028,55.282,45.028z M54.668,44.153c0.773,0.326,1.656-0.01,2.004-0.767c0.176-0.379,0.19-0.802,0.043-1.191c-0.147-0.389-0.438-0.694-0.818-0.86c-0.383-0.168-0.805-0.177-1.191-0.026c-0.381,0.15-0.681,0.441-0.845,0.818c-0.163,0.378-0.169,0.797-0.017,1.179C53.997,43.688,54.289,43.989,54.668,44.153z"/><path fill="#7878aa" d="M62.253,43.824c0.599-3.854-2.04-7.464-5.894-8.063c-3.854-0.599-7.464,2.04-8.063,5.894s2.04,7.464,5.894,8.063C58.045,50.318,61.655,47.679,62.253,43.824z M54.409,48.313c-3.078-0.478-5.185-3.361-4.707-6.439c0.478-3.078,3.361-5.185,6.439-4.707c3.078,0.478,5.185,3.361,4.707,6.439C60.369,46.684,57.487,48.791,54.409,48.313z"/><path fill="#472b29" d="M55.245 48.7c-.295 0-.595-.022-.896-.069l0 0c-3.173-.493-5.353-3.476-4.859-6.647.239-1.537 1.062-2.889 2.317-3.807 1.255-.917 2.793-1.291 4.329-1.053 1.537.239 2.889 1.062 3.807 2.317.918 1.255 1.293 2.793 1.054 4.329C60.55 46.641 58.065 48.7 55.245 48.7zM54.425 48.136c2.899.451 5.626-1.543 6.077-4.442.219-1.405-.124-2.811-.963-3.958s-2.075-1.899-3.479-2.118c-1.404-.216-2.809.124-3.958.962-1.147.84-1.899 2.075-2.118 3.479-.219 1.405.123 2.811.962 3.959C51.786 47.165 53.021 47.917 54.425 48.136L54.425 48.136zM50.059 38.19c-.061 0-.122-.022-.17-.066-.102-.095-.107-.253-.014-.354 1.667-1.796 4.106-2.642 6.523-2.268.137.021.23.149.209.285-.021.137-.152.231-.285.209-2.253-.351-4.526.439-6.08 2.113C50.193 38.162 50.126 38.19 50.059 38.19z"/><path fill="#472b29" d="M55.42,50.094c-1.687,0-3.368-0.608-4.771-1.771c-2.045-1.694-3.033-4.193-2.646-6.683c0.021-0.137,0.152-0.229,0.285-0.209c0.137,0.021,0.23,0.149,0.209,0.285c-0.361,2.314,0.562,4.641,2.471,6.222c1.921,1.593,4.4,2.071,6.626,1.281c0.134-0.048,0.273,0.021,0.319,0.151c0.047,0.131-0.021,0.273-0.151,0.319C56.998,49.961,56.209,50.094,55.42,50.094z"/><path fill="#a2a2cc" d="M59.666,48.349c-0.24,0.189-0.492,0.364-0.754,0.522"/><path fill="#472b29" d="M58.912,49.12c-0.085,0-0.168-0.043-0.215-0.122c-0.07-0.118-0.032-0.271,0.087-0.343c0.248-0.148,0.493-0.317,0.728-0.503c0.108-0.086,0.266-0.067,0.352,0.041s0.067,0.266-0.041,0.352c-0.252,0.198-0.515,0.38-0.782,0.54C58.999,49.109,58.956,49.12,58.912,49.12z"/><path fill="#a2a2cc" d="M61.024,46.938c-0.257,0.354-0.546,0.684-0.864,0.984"/><path fill="#472b29" d="M60.16 48.172c-.066 0-.132-.026-.182-.078-.095-.101-.091-.259.01-.354.307-.29.587-.61.834-.949.081-.112.238-.137.349-.056.112.081.137.237.056.349-.265.365-.565.708-.895 1.02C60.284 48.15 60.221 48.172 60.16 48.172zM62.289 44.11c-.013 0-.025-.001-.038-.003-.137-.021-.23-.149-.209-.285.354-2.278-.453-4.567-2.159-6.124-.103-.093-.109-.251-.017-.353.094-.104.252-.109.353-.017 1.832 1.669 2.698 4.125 2.317 6.569C62.517 44.022 62.411 44.11 62.289 44.11z"/><path fill="#a2a2cc" d="M59.573 39.123L61.488 39.443"/><path fill="#472b29" d="M61.489,39.569c-0.007,0-0.014-0.001-0.021-0.002l-1.916-0.321c-0.068-0.011-0.114-0.075-0.103-0.144c0.011-0.068,0.073-0.11,0.144-0.103l1.916,0.321c0.068,0.011,0.114,0.075,0.103,0.144C61.602,39.526,61.549,39.569,61.489,39.569z"/><path fill="#a2a2cc" d="M60.661 40.766L62.059 41.108"/><path fill="#472b29" d="M62.059,41.233c-0.01,0-0.02-0.001-0.029-0.004l-1.398-0.342c-0.067-0.016-0.108-0.084-0.092-0.15c0.017-0.067,0.086-0.111,0.15-0.092l1.398,0.342c0.067,0.016,0.108,0.084,0.092,0.15C62.166,41.195,62.116,41.233,62.059,41.233z"/><path fill="#a2a2cc" d="M60.935 42.468L62.321 42.891"/><path fill="#472b29" d="M62.322,43.016c-0.012,0-0.024-0.002-0.036-0.006l-1.387-0.423c-0.066-0.02-0.104-0.09-0.083-0.155c0.02-0.066,0.092-0.104,0.155-0.083l1.387,0.423c0.066,0.02,0.104,0.09,0.083,0.155C62.425,42.982,62.375,43.016,62.322,43.016z"/><path fill="#a2a2cc" d="M55.326 35.747L54.939 37.016"/><path fill="#472b29" d="M54.939,37.141c-0.012,0-0.024-0.002-0.036-0.006c-0.066-0.02-0.104-0.09-0.083-0.155l0.388-1.269c0.02-0.066,0.089-0.104,0.155-0.083c0.066,0.02,0.104,0.09,0.083,0.155l-0.388,1.269C55.042,37.107,54.993,37.141,54.939,37.141z"/><path fill="#a2a2cc" d="M53.748 35.877L53.575 37.388"/><path fill="#472b29" d="M53.576,37.513c-0.005,0-0.01,0-0.014-0.001c-0.069-0.008-0.118-0.069-0.11-0.138l0.172-1.512c0.008-0.069,0.08-0.121,0.138-0.11c0.069,0.008,0.118,0.069,0.11,0.138L53.7,37.402C53.693,37.466,53.638,37.513,53.576,37.513z"/><path fill="#a2a2cc" d="M51.949 36.51L52.239 38.013"/><path fill="#472b29" d="M52.239,38.138c-0.059,0-0.111-0.042-0.123-0.102l-0.29-1.503c-0.013-0.067,0.031-0.133,0.1-0.146c0.066-0.009,0.134,0.032,0.146,0.1l0.29,1.503c0.013,0.067-0.031,0.133-0.1,0.146C52.254,38.137,52.247,38.138,52.239,38.138z"/><path fill="#a2a2cc" d="M48.216 42.648L49.59 43.152"/><path fill="#472b29" d="M49.589,43.277c-0.015,0-0.029-0.002-0.043-0.008l-1.373-0.503c-0.064-0.023-0.099-0.096-0.074-0.16c0.023-0.065,0.098-0.102,0.16-0.074l1.373,0.503c0.064,0.023,0.099,0.096,0.074,0.16C49.688,43.245,49.64,43.277,49.589,43.277z"/><path fill="#a2a2cc" d="M48.403 44.452L49.873 44.62"/><path fill="#472b29" d="M49.873,44.745c-0.005,0-0.01,0-0.015-0.001l-1.471-0.168c-0.068-0.008-0.117-0.069-0.109-0.139c0.007-0.068,0.068-0.125,0.139-0.109l1.471,0.168c0.068,0.008,0.117,0.069,0.109,0.139C49.991,44.699,49.936,44.745,49.873,44.745z"/><path fill="#a2a2cc" d="M49.285 46.271L50.627 46.175"/><path fill="#472b29" d="M49.285,46.396c-0.065,0-0.12-0.05-0.125-0.116c-0.005-0.068,0.047-0.129,0.116-0.134l1.342-0.096c0.003,0,0.006,0,0.009,0c0.065,0,0.12,0.05,0.125,0.116c0.005,0.068-0.047,0.129-0.116,0.134l-1.342,0.096C49.29,46.396,49.288,46.396,49.285,46.396z"/><path fill="#a2a2cc" d="M50.722 47.876L51.867 47.446"/><path fill="#472b29" d="M50.722,48.001c-0.051,0-0.098-0.031-0.117-0.081c-0.024-0.064,0.009-0.137,0.073-0.161l1.145-0.431c0.064-0.021,0.136,0.009,0.161,0.073c0.024,0.064-0.009,0.137-0.073,0.161l-1.145,0.431C50.751,47.998,50.737,48.001,50.722,48.001z"/><path fill="#a2a2cc" d="M52.458 49.174L53.592 48.267"/><path fill="#472b29" d="M52.458,49.299c-0.036,0-0.073-0.016-0.098-0.047c-0.043-0.054-0.034-0.133,0.02-0.176l1.134-0.907c0.056-0.042,0.134-0.035,0.176,0.02c0.043,0.054,0.034,0.133-0.02,0.176l-1.134,0.907C52.513,49.29,52.486,49.299,52.458,49.299z"/><path fill="#a2a2cc" d="M54.693 49.73L55.32 48.535"/><path fill="#472b29" d="M54.693,49.855c-0.02,0-0.04-0.005-0.058-0.015c-0.062-0.032-0.085-0.107-0.053-0.168l0.627-1.194c0.033-0.061,0.11-0.085,0.168-0.053c0.062,0.032,0.085,0.107,0.053,0.168l-0.627,1.194C54.781,49.83,54.738,49.855,54.693,49.855z"/><path fill="#a2a2cc" d="M57.091,35.886c0.422,0.116,0.832,0.27,1.226,0.461"/><path fill="#472b29" d="M58.316,36.597c-0.037,0-0.074-0.008-0.109-0.025c-0.377-0.184-0.774-0.333-1.182-0.444c-0.134-0.036-0.212-0.174-0.176-0.307s0.177-0.21,0.307-0.176c0.438,0.12,0.865,0.28,1.27,0.478c0.124,0.061,0.176,0.21,0.115,0.334C58.498,36.545,58.409,36.597,58.316,36.597z"/></svg>